<?xml version="1.0" encoding="utf-8"?>
<!-- Generator: Adobe Illustrator 27.5.0, SVG Export Plug-In . SVG Version: 6.00 Build 0)  -->
<svg version="1.1" id="Layer_1" xmlns="http://www.w3.org/2000/svg" xmlns:xlink="http://www.w3.org/1999/xlink" x="0px" y="0px"
	 viewBox="0 0 900 900" style="enable-background:new 0 0 900 900;" xml:space="preserve">
<g>
	
		<linearGradient id="SVGID_1_" gradientUnits="userSpaceOnUse" x1="3436.3643" y1="797.5168" x2="3819.395" y2="797.5168" gradientTransform="matrix(-0.1692 0 0 1 1376.0275 0)">
		<stop  offset="0" style="stop-color:#FF5B33"/>
		<stop  offset="0.4062" style="stop-color:#FD5A33"/>
		<stop  offset="0.5525" style="stop-color:#F65831"/>
		<stop  offset="0.6568" style="stop-color:#EB532E"/>
		<stop  offset="0.7412" style="stop-color:#DA4D29"/>
		<stop  offset="0.8134" style="stop-color:#C44524"/>
		<stop  offset="0.8774" style="stop-color:#A83B1D"/>
		<stop  offset="0.9353" style="stop-color:#882F14"/>
		<stop  offset="0.9867" style="stop-color:#64210B"/>
		<stop  offset="1" style="stop-color:#591D08"/>
	</linearGradient>
	<polygon style="fill:url(#SVGID_1_);" points="729.786,830.453 794.595,830.453 771.595,797.786 794.595,764.581 729.786,764.581 	
		"/>
	
		<linearGradient id="SVGID_00000182529966984484866370000009812028858923691162_" gradientUnits="userSpaceOnUse" x1="7920.3066" y1="797.5173" x2="8303.3359" y2="797.5173" gradientTransform="matrix(0.1692 0 0 1 -1234.7115 0)">
		<stop  offset="0" style="stop-color:#FF5B33"/>
		<stop  offset="0.4062" style="stop-color:#FD5A33"/>
		<stop  offset="0.5525" style="stop-color:#F65831"/>
		<stop  offset="0.6568" style="stop-color:#EB532E"/>
		<stop  offset="0.7412" style="stop-color:#DA4D29"/>
		<stop  offset="0.8134" style="stop-color:#C44524"/>
		<stop  offset="0.8774" style="stop-color:#A83B1D"/>
		<stop  offset="0.9353" style="stop-color:#882F14"/>
		<stop  offset="0.9867" style="stop-color:#64210B"/>
		<stop  offset="1" style="stop-color:#591D08"/>
	</linearGradient>
	<polygon style="fill:url(#SVGID_00000182529966984484866370000009812028858923691162_);" points="170.213,830.453 105.404,830.453 
		128.404,797.786 105.404,764.581 170.213,764.581 	"/>
	
		<linearGradient id="SVGID_00000113318172676019431740000003193053669165513857_" gradientUnits="userSpaceOnUse" x1="724.3193" y1="792.1171" x2="750.55" y2="792.1171" gradientTransform="matrix(-1 0 0 1 1480.3359 0)">
		<stop  offset="0" style="stop-color:#702C00"/>
		<stop  offset="1" style="stop-color:#D72C00"/>
	</linearGradient>
	<polygon style="fill:url(#SVGID_00000113318172676019431740000003193053669165513857_);" points="729.786,830.453 756.017,819.653 
		756.017,753.781 729.786,764.581 	"/>
	
		<linearGradient id="SVGID_00000162354411472258496430000003031211586540498322_" gradientUnits="userSpaceOnUse" x1="1482.999" y1="792.1171" x2="1509.2324" y2="792.1171" gradientTransform="matrix(1 0 0 1 -1339.0195 0)">
		<stop  offset="0" style="stop-color:#702C00"/>
		<stop  offset="1" style="stop-color:#D72C00"/>
	</linearGradient>
	<polygon style="fill:url(#SVGID_00000162354411472258496430000003031211586540498322_);" points="170.213,830.453 143.98,819.653 
		143.98,753.781 170.213,764.581 	"/>
	
		<linearGradient id="SVGID_00000073685924335005368460000006576068138241426617_" gradientUnits="userSpaceOnUse" x1="450.0752" y1="819.6528" x2="450.0752" y2="753.781">
		<stop  offset="0" style="stop-color:#EB3C00"/>
		<stop  offset="1" style="stop-color:#EB2C00"/>
	</linearGradient>
	
		<rect x="143.98" y="753.781" style="fill:url(#SVGID_00000073685924335005368460000006576068138241426617_);" width="612.191" height="65.872"/>
	<g>
		<path style="fill:#FFFFFF;" d="M372.085,783.602v-0.504c0-4.143-1.54-6.217-4.619-6.217c-1.765,0-3.039,0.806-3.822,2.415
			c-0.784,1.61-1.176,3.983-1.176,7.119c0,3.108,0.489,5.418,1.47,6.931c0.979,1.512,2.407,2.268,4.284,2.268
			c0.979,0,2.064-0.232,3.255-0.693c1.189-0.462,2.484-1.196,3.885-2.205c0.699,0.477,1.351,1.128,1.953,1.953
			c0.601,0.826,0.973,1.617,1.113,2.373c-0.645,0.616-1.393,1.197-2.247,1.743c-0.854,0.546-1.778,1.016-2.772,1.407
			c-0.994,0.393-2.03,0.707-3.107,0.945c-1.078,0.237-2.163,0.356-3.255,0.356c-2.157,0-3.977-0.413-5.461-1.239
			c-1.484-0.825-2.681-1.925-3.591-3.297c-0.91-1.371-1.568-2.953-1.974-4.746c-0.406-1.791-0.609-3.653-0.609-5.586
			c0-2.52,0.315-4.725,0.945-6.614c0.63-1.891,1.483-3.466,2.562-4.726c1.078-1.26,2.346-2.205,3.802-2.835
			c1.455-0.63,3.009-0.945,4.662-0.945c1.68,0,3.205,0.225,4.577,0.673c1.372,0.448,2.541,1.065,3.508,1.848
			c0.966,0.784,1.707,1.708,2.226,2.771c0.518,1.064,0.777,2.213,0.777,3.444c0,2.492-1.274,3.738-3.822,3.738
			C373.892,783.979,373.037,783.854,372.085,783.602z"/>
		<path style="fill:#FFFFFF;" d="M399.764,797.839c-0.141,0.589-0.406,1.219-0.798,1.891c-0.393,0.672-0.798,1.161-1.219,1.47
			c-1.96-0.057-3.472-0.798-4.535-2.226c-1.821,1.68-3.795,2.52-5.923,2.52c-1.092,0-2.044-0.175-2.855-0.524
			c-0.813-0.351-1.498-0.819-2.058-1.407c-0.561-0.588-0.98-1.267-1.261-2.037c-0.28-0.77-0.42-1.575-0.42-2.415
			c0-1.204,0.217-2.261,0.651-3.171c0.434-0.91,1.029-1.666,1.785-2.269c0.756-0.602,1.638-1.057,2.646-1.364
			c1.008-0.309,2.086-0.462,3.234-0.462c0.644,0,1.211,0.007,1.701,0.021c0.489,0.015,0.916,0.035,1.28,0.063v-0.808
			c0-1.786-0.91-2.679-2.729-2.679c-1.176,0-3.234,0.462-6.174,1.386c-0.84-0.979-1.372-2.506-1.597-4.578
			c0.673-0.252,1.421-0.489,2.247-0.714c0.826-0.224,1.673-0.42,2.541-0.588c0.868-0.168,1.723-0.301,2.563-0.399
			c0.84-0.098,1.596-0.146,2.268-0.146c0.98,0,1.925,0.141,2.835,0.42c0.91,0.28,1.708,0.707,2.395,1.281
			c0.686,0.574,1.232,1.316,1.638,2.226c0.405,0.91,0.609,1.995,0.609,3.255v8.526C398.588,796.397,398.979,797.308,399.764,797.839
			z M387.079,794.689c0,1.316,0.757,1.974,2.269,1.974c0.783,0,1.665-0.405,2.646-1.218v-3.36c-0.56-0.027-1.028-0.048-1.406-0.063
			c-0.378-0.014-0.666-0.021-0.861-0.021C387.962,792.001,387.079,792.897,387.079,794.689z"/>
		<path style="fill:#FFFFFF;" d="M402.24,782.93c0.14-0.561,0.406-1.183,0.798-1.869c0.393-0.686,0.784-1.183,1.177-1.491
			c2.575,0.196,4.367,1.47,5.376,3.822c1.064-2.521,2.814-3.78,5.25-3.78c0.728,0,1.651,0.112,2.772,0.336
			c0,0.868-0.147,1.898-0.44,3.087c-0.294,1.19-0.693,2.205-1.197,3.045c-0.477-0.168-1.19-0.308-2.143-0.42
			c-1.4,0-2.548,0.714-3.443,2.143v13.062c-0.924,0.168-2.01,0.252-3.255,0.252c-1.246,0-2.346-0.084-3.297-0.252v-13.566
			C403.837,785.197,403.305,783.742,402.24,782.93z"/>
		<path style="fill:#FFFFFF;" d="M450.666,781.039c0,0.924-0.141,1.8-0.421,2.625c-0.279,0.826-0.65,1.568-1.112,2.227
			c-0.462,0.658-1.008,1.232-1.639,1.722c-0.63,0.49-1.28,0.861-1.952,1.113c1.455,0.532,2.533,1.82,3.233,3.863l1.26,3.57
			c0.477,1.4,1.177,2.437,2.101,3.108c-0.42,0.561-1.05,1.028-1.891,1.406c-0.84,0.379-1.764,0.567-2.771,0.567
			s-1.792-0.287-2.353-0.861c-0.56-0.573-1.078-1.574-1.554-3.003l-1.512-4.41c-0.309-0.84-0.722-1.483-1.239-1.932
			c-0.519-0.447-1.295-0.672-2.331-0.672h-1.722v10.5c-0.897,0.168-2.017,0.252-3.36,0.252c-1.344,0-2.45-0.084-3.317-0.252v-28.476
			l0.294-0.294c2.435-0.057,4.486-0.099,6.152-0.127c1.666-0.027,2.976-0.042,3.928-0.042c1.539,0,2.939,0.189,4.199,0.567
			c1.261,0.378,2.331,0.945,3.213,1.701c0.883,0.756,1.568,1.708,2.059,2.856C450.42,778.197,450.666,779.527,450.666,781.039z
			 M436.764,776.923v8.274c1.26,0,2.338-0.021,3.233-0.063c0.896-0.043,1.617-0.212,2.163-0.507
			c0.547-0.296,0.959-0.711,1.239-1.246c0.279-0.534,0.42-1.309,0.42-2.321c0-2.73-1.316-4.096-3.948-4.096
			c-0.644,0-1.225,0-1.742,0C437.61,776.965,437.155,776.951,436.764,776.923z"/>
		<path style="fill:#FFFFFF;" d="M470.912,792.505H459.99c0.056,1.247,0.376,2.217,0.962,2.909c0.585,0.693,1.548,1.039,2.887,1.039
			c0.669,0,1.443-0.095,2.322-0.284c0.878-0.188,1.89-0.501,3.033-0.934c0.92,0.952,1.492,2.24,1.716,3.864
			c-2.241,1.596-4.984,2.393-8.232,2.393c-1.764,0-3.241-0.28-4.431-0.84c-1.19-0.56-2.157-1.344-2.898-2.352
			c-0.742-1.009-1.268-2.198-1.575-3.57c-0.309-1.372-0.462-2.87-0.462-4.494c0-1.567,0.19-3.017,0.567-4.347
			c0.378-1.33,0.951-2.485,1.722-3.466c0.77-0.979,1.75-1.749,2.94-2.31c1.19-0.56,2.583-0.84,4.179-0.84
			c1.344,0,2.555,0.225,3.633,0.672c1.078,0.448,1.995,1.065,2.751,1.848c0.756,0.784,1.337,1.723,1.743,2.814
			c0.405,1.092,0.609,2.282,0.609,3.57C471.456,789.888,471.274,791.329,470.912,792.505z M459.948,787.97h5.502v-0.463
			c0-1.035-0.23-1.89-0.689-2.561c-0.458-0.672-1.146-1.008-2.063-1.008c-0.89,0-1.55,0.314-1.98,0.944
			C460.288,785.513,460.031,786.541,459.948,787.97z"/>
		<path style="fill:#FFFFFF;" d="M485.723,801.283c-1.283,0-2.567-0.294-3.851-0.882v5.586c0,1.455-0.267,2.477-0.798,3.066
			c-0.532,0.588-1.471,0.882-2.814,0.882h-2.52l-0.295-0.294v-29.736l0.295-0.294h1.722c1.596,0,2.786,0.686,3.57,2.058
			c1.59-1.596,3.53-2.393,5.819-2.393c1.172,0,2.204,0.259,3.098,0.777c0.893,0.518,1.653,1.253,2.281,2.204
			c0.628,0.953,1.103,2.101,1.424,3.444c0.32,1.344,0.481,2.857,0.481,4.536s-0.217,3.206-0.649,4.578
			c-0.432,1.372-1.024,2.534-1.778,3.486c-0.753,0.952-1.639,1.687-2.657,2.204C488.032,801.024,486.922,801.283,485.723,801.283z
			 M484.938,784.525c-1.176,0-2.198,0.56-3.065,1.68v9.24c1.063,0.644,1.974,0.966,2.729,0.966c1.904,0,2.856-2.113,2.856-6.342
			C487.458,786.373,486.618,784.525,484.938,784.525z"/>
		<path style="fill:#FFFFFF;" d="M515.85,797.839c-0.141,0.589-0.406,1.219-0.798,1.891c-0.393,0.672-0.798,1.161-1.219,1.47
			c-1.96-0.057-3.472-0.798-4.535-2.226c-1.821,1.68-3.795,2.52-5.923,2.52c-1.092,0-2.044-0.175-2.855-0.524
			c-0.813-0.351-1.498-0.819-2.058-1.407c-0.561-0.588-0.98-1.267-1.261-2.037c-0.28-0.77-0.42-1.575-0.42-2.415
			c0-1.204,0.217-2.261,0.651-3.171c0.434-0.91,1.029-1.666,1.785-2.269c0.756-0.602,1.638-1.057,2.646-1.364
			c1.008-0.309,2.086-0.462,3.234-0.462c0.644,0,1.211,0.007,1.701,0.021c0.489,0.015,0.916,0.035,1.28,0.063v-0.808
			c0-1.786-0.91-2.679-2.729-2.679c-1.176,0-3.234,0.462-6.174,1.386c-0.84-0.979-1.372-2.506-1.597-4.578
			c0.673-0.252,1.421-0.489,2.247-0.714c0.826-0.224,1.673-0.42,2.541-0.588c0.868-0.168,1.723-0.301,2.563-0.399
			c0.84-0.098,1.596-0.146,2.268-0.146c0.98,0,1.925,0.141,2.835,0.42c0.91,0.28,1.708,0.707,2.395,1.281
			c0.685,0.574,1.231,1.316,1.638,2.226c0.405,0.91,0.609,1.995,0.609,3.255v8.526C514.674,796.397,515.065,797.308,515.85,797.839z
			 M503.165,794.689c0,1.316,0.757,1.974,2.269,1.974c0.783,0,1.665-0.405,2.646-1.218v-3.36c-0.56-0.027-1.028-0.048-1.406-0.063
			c-0.378-0.014-0.666-0.021-0.861-0.021C504.048,792.001,503.165,792.897,503.165,794.689z"/>
		<path style="fill:#FFFFFF;" d="M527.146,784.735v16.128c-0.477,0.084-0.994,0.147-1.554,0.189
			c-0.561,0.042-1.135,0.063-1.723,0.063s-1.169-0.02-1.743-0.063c-0.574-0.042-1.099-0.105-1.574-0.189v-13.902
			c0-1.623-0.658-2.435-1.975-2.435h-0.63c-0.168-0.531-0.252-1.273-0.252-2.227c0-0.924,0.084-1.707,0.252-2.352
			c0.728-0.056,1.4-0.105,2.017-0.147c0.615-0.042,1.176-0.063,1.68-0.063h0.924c1.428,0,2.548,0.448,3.36,1.344
			C526.74,781.977,527.146,783.195,527.146,784.735z M519.797,771.463c0.812-0.447,1.861-0.672,3.149-0.672
			c1.315,0,2.338,0.225,3.066,0.672c0.336,0.757,0.504,1.568,0.504,2.437c0,0.868-0.168,1.68-0.504,2.435
			c-0.813,0.42-1.877,0.63-3.192,0.63c-1.316,0-2.324-0.21-3.023-0.63c-0.337-0.756-0.505-1.567-0.505-2.435
			C519.292,773.031,519.46,772.22,519.797,771.463z"/>
		<path style="fill:#FFFFFF;" d="M530.842,782.93c0.14-0.561,0.406-1.183,0.798-1.869c0.393-0.686,0.784-1.183,1.177-1.491
			c2.575,0.196,4.367,1.47,5.376,3.822c1.064-2.521,2.814-3.78,5.25-3.78c0.728,0,1.651,0.112,2.772,0.336
			c0,0.868-0.147,1.898-0.441,3.087c-0.294,1.19-0.693,2.205-1.197,3.045c-0.477-0.168-1.19-0.308-2.143-0.42
			c-1.4,0-2.548,0.714-3.443,2.143v13.062c-0.924,0.168-2.01,0.252-3.255,0.252c-1.246,0-2.346-0.084-3.297-0.252v-13.566
			C532.438,785.197,531.906,783.742,530.842,782.93z"/>
	</g>
</g>
<g>
	<g>
		<path style="fill:#3E3B44;" d="M180.665,268.107c-2.611,0-2.755-0.77-0.319-1.712l0.015-0.006
			c2.436-0.941,6.565-1.712,9.177-1.711l106.977,0.001c2.611,0,2.755,0.77,0.319,1.712l-0.015,0.006
			c-2.436,0.941-6.565,1.711-9.177,1.711L180.665,268.107z"/>
		<g>
			<g>
				<path style="fill:#3B3844;" d="M166.719,601.808h-30.446c-20.154,0-36.989-24.286-41.034-56.664
					c-0.606-4.851-0.925-9.881-0.925-15.041c0-39.609,18.784-71.715,41.958-71.715h29.016l3.712,73.709L166.719,601.808
					L166.719,601.808z"/>
				<g>
					<g style="enable-background:new    ;">
						<g>
							<path style="fill:#2C2933;" d="M165.288,458.388c-23.174,0-41.958,32.106-41.958,71.715c0,5.16,0.319,10.19,0.925,15.041
								c4.045,32.378,20.879,56.664,41.034,56.664c20.15,0,36.983-24.287,41.028-56.664c0.606-4.851,0.925-9.881,0.925-15.041
								C207.242,490.494,188.457,458.388,165.288,458.388L165.288,458.388z"/>
						</g>
					</g>
				</g>
				<g>
					<g style="enable-background:new    ;">
						<g>
							<path style="fill:#2C2933;" d="M150.122,472.516c-13.622,0-24.663,18.873-24.663,42.154c0,3.033,0.187,5.99,0.544,8.841
								c2.378,19.031,12.273,33.307,24.119,33.306c11.844,0,21.739-14.276,24.116-33.308c0.356-2.852,0.544-5.808,0.544-8.841
								C174.782,491.387,163.74,472.515,150.122,472.516L150.122,472.516z"/>
						</g>
					</g>
				</g>
				<path style="fill:#D0E229;" d="M175.195,386.271c0,2.653,2.171,4.824,4.824,4.824h36.32c2.653,0,4.824-2.171,4.824-4.824
					v-20.672c0-2.653-2.171-4.824-4.824-4.824h-36.32c-2.653,0-4.824,2.171-4.824,4.824V386.271z"/>
				<polygon style="fill:#8C4C57;" points="286.693,415.503 826.578,415.503 826.578,527.001 513.601,527.001 513.601,543.671 
					296.474,543.671 296.474,527.001 286.693,527.001 				"/>
				<path style="fill:#8C4C57;" d="M739.939,554.892c0,2.653-2.171,4.824-4.824,4.824H158.94c-2.653,0-4.824-2.171-4.824-4.824
					v-20.67c0-2.653,2.171-4.824,4.824-4.824h576.175c2.653,0,4.824,2.171,4.824,4.824V554.892z"/>
				<g>
					<g>
						<g style="enable-background:new    ;">
							<g>
								<path style="fill:#2C2933;" d="M189.576,538.941c0.356-2.852,0.544-5.808,0.544-8.841c0-23.282-11.042-42.153-24.66-42.153
									L189.576,538.941z"/>
								<path style="fill:#2C2933;" d="M165.459,487.947c-13.622,0-24.663,18.873-24.663,42.154c0,3.033,0.187,5.99,0.544,8.841
									L165.459,487.947z"/>
							</g>
						</g>
					</g>
					<path style="fill:#D0E229;" d="M508.682,383.434l187.815-78.685c-15.024-13.909-52.712-19.267-63.267-19.267
						c0,0-264.38,0-304.154,0c-56.075,0-70.016,27.085-87.373,48.071c-14.84,17.943-36.768,49.11-40.286,49.891L91.053,421.718
						c-3.84,1.432-8.367,7.749-11.146,15.494l-9.301,25.978c-2.756,7.65-3.602,20.895-3.602,29.536v35.779
						c0,8.641,3.414,15.699,7.586,15.699h46.506h240.582V435.259l164.676-0.967c0,0,0.487,89.376,0,94.104l8.997-94.104
						c4.172,0,7.586-7.069,7.586-15.71v61.006c0-8.641,0-6.962,0-15.603v-27.013C542.936,428.331,542.261,383.434,508.682,383.434z"
						/>
					<path style="fill:#D0E229;" d="M673.388,311.384v-21.306c-7.888-3.197-34.786-4.596-40.159-4.596c0,0-264.38,0-304.154,0
						c-37.051,0-55.705,11.826-69.106,25.902H673.388z"/>
					<g>
						<path style="fill:#D0E229;" d="M123.73,527.526v-35.779c0-8.642,0.846-21.886,3.602-29.536l185.35-25.978
							c2.78-7.744,7.306-14.062,11.146-15.494l110.364-38.274c3.517-0.781,25.446-31.947,40.286-49.891
							c17.357-20.986,31.298-48.071,87.373-48.071c-6.319,0-188.936,0-195.61,0c-56.075,0-70.016,27.085-87.373,48.071
							c-14.84,17.944-36.768,49.11-40.286,49.891L128.219,420.74c-3.84,1.432-8.367,7.749-11.146,15.494l-9.301,25.978
							c-2.756,7.65-3.602,20.895-3.602,29.536v35.779c0,8.641,3.413,16.688,7.586,16.688h19.561
							C127.144,544.215,123.73,536.167,123.73,527.526z"/>
					</g>
					<path style="fill:#C4CC21;" d="M366.84,435.229l-5.163,0.03v108.944H121.095H74.589c-4.172,0-7.586-7.058-7.586-15.699v-35.779
						c0-8.641,0.846-21.886,3.602-29.536l9.301-25.978c1.171-3.264,2.655-6.267,4.264-8.765h42.486h173.116h67.067V435.229z"/>
					<g>
						<g style="enable-background:new    ;">
							<g>
								<path style="fill:#3B3844;" d="M436.335,601.808h-30.446c-20.154,0-36.989-24.286-41.034-56.664
									c-0.606-4.851-0.925-9.881-0.925-15.041c0-39.609,18.784-71.715,41.958-71.715h29.016l3.712,73.709L436.335,601.808
									L436.335,601.808z"/>
								<path style="fill:#3B3844;" d="M738.427,458.388c-23.174,0-41.958,32.106-41.958,71.715c0,5.16,0.319,10.19,0.925,15.041
									c4.045,32.378,20.879,56.664,41.034,56.664h28.489l4.421-143.42H738.427z"/>
							</g>
						</g>
					</g>
					<path style="fill:#FFFFFF;" d="M735.074,386.602v-27.265c0,0-7.21-38.261-17.182-52.523c-2.284-3.267-4.674-5.275-8.112-5.275
						s-129.239,0-129.239,0l-0.598,0.31l-1.428-0.464c-0.006,0-0.011,0-0.017,0c-1.525,0-9.66,0.641-20.115,13.281
						c-4.504,5.446-50.906,63.697-57.95,71.937H735.074z"/>
					<path style="fill:#2B2C2E;" d="M137.171,465.341c-0.797,5.32,2.952,9.672,8.331,9.672h135.811c5.379,0,9.781-4.401,9.781-9.78
						v-13.076c0-5.379-4.401-9.781-9.781-9.781H150.393c-5.379,0-10.433,4.353-11.23,9.673L137.171,465.341z"/>
					<g>
						<polygon style="fill:#FEEB8D;" points="626.364,536.258 608.428,536.258 608.428,385.083 602.581,299.61 620.475,298.386 
							626.364,384.47 						"/>
					</g>
					<g>
						<g style="enable-background:new    ;">
							<g>
								<path style="fill:#4B4554;" d="M434.905,458.388c-23.174,0-41.958,32.106-41.958,71.715c0,5.16,0.319,10.19,0.925,15.041
									c4.045,32.378,20.879,56.664,41.034,56.664c20.15,0,36.983-24.287,41.028-56.664c0.606-4.851,0.925-9.881,0.925-15.041
									C476.858,490.494,458.074,458.388,434.905,458.388L434.905,458.388z"/>
							</g>
						</g>
					</g>
					<g>
						<g style="enable-background:new    ;">
							<g>
								<path style="fill:#4B4554;" d="M771.337,458.388c-23.174,0-41.958,32.106-41.958,71.715c0,5.16,0.319,10.19,0.925,15.041
									c4.045,32.378,20.879,56.664,41.034,56.664c20.15,0,36.983-24.287,41.028-56.664c0.606-4.851,0.925-9.881,0.925-15.041
									C813.291,490.494,794.506,458.388,771.337,458.388L771.337,458.388z"/>
							</g>
						</g>
					</g>
					<g>
						<g style="enable-background:new    ;">
							<g>
								<g>
									<path style="fill:#8C98A4;" d="M435.395,483.985c-14.902,0.001-26.981,20.647-26.981,46.117
										c0,3.318,0.205,6.553,0.595,9.672c2.601,20.82,13.426,36.436,26.387,36.436c12.957-0.001,23.782-15.618,26.383-36.438
										c0.39-3.12,0.595-6.354,0.595-9.672C462.373,504.629,450.293,483.985,435.395,483.985L435.395,483.985z"/>
									<path style="fill:#CAD5D7;" d="M435.395,577.818c-13.692,0.001-25.198-15.561-27.982-37.844
										c-0.403-3.225-0.607-6.546-0.607-9.871c0-26.315,12.825-47.724,28.589-47.725c7.801-0.001,15.068,5.079,20.464,14.301
										c5.238,8.952,8.122,20.821,8.122,33.42c0,3.327-0.204,6.648-0.607,9.872C460.59,562.254,449.085,577.817,435.395,577.818z
										 M435.395,485.593c-13.991,0.001-25.373,19.967-25.373,44.509c0,3.193,0.196,6.38,0.583,9.473
										c2.536,20.297,12.962,35.028,24.791,35.027v1.608v-1.608c11.827-0.001,22.252-14.733,24.787-35.03
										c0.386-3.092,0.582-6.279,0.582-9.473c0-12.037-2.728-23.329-7.682-31.796
										C448.288,490.107,442.006,485.593,435.395,485.593z"/>
								</g>
							</g>
						</g>
					</g>
					<path style="fill:#FEEB8D;" d="M350.199,284.504h4.432C351.823,284.164,350.199,284.504,350.199,284.504z"/>
					<path style="fill:#84A599;" d="M509.689,332.575c-12.383,14.973-33.214,42.087-33.214,42.087
						c-2.155,2.805-6.813,5.101-10.35,5.101H219.71c-3.538,0-4.673-2.299-2.523-5.108c0,0,20.424-26.694,32.34-41.102
						c5.646-6.826,13.358-16.287,13.358-16.287c2.235-2.742,6.959-4.986,10.496-4.986h246.398c3.538,0,4.613,2.251,2.39,5.003
						C522.168,317.284,515.072,326.067,509.689,332.575z"/>
				</g>
				<path style="fill:#8EB238;" d="M348.372,462.211l9.301-25.978c2.78-7.744,7.306-14.062,11.146-15.494l110.364-38.274
					c3.518-0.781,25.446-31.947,40.286-49.891c17.357-20.986,31.298-48.071,87.373-48.071c39.774,0,95.534,0,95.534,0
					c16.883,0,22.238,5.358,37.262,19.267l66.371,78.685c33.58,0,34.254,44.897,34.254,53.538v27.013c0,8.642,0,6.962,0,15.603
					v33.098c0,8.642-3.414,15.711-7.586,15.711h-8.997l-2.362,0.056c0.004-0.453,0.021-0.904,0.021-1.357
					c0-48.035-23.185-87.114-51.683-87.114c-28.5,0-51.688,39.079-51.688,87.114c0,1.826,0.101,4.002,0.101,6.315
					c0,7.49,0.96,11.771-12.407,11.771c-11.599,0-170.042,0-211.749,0c-7.661,0-9.008-3.629-9.008-16.907
					c0-0.438-0.006-0.875-0.01-1.312c0.001-0.215,0.01-0.429,0.01-0.644c0-47.497-22.925-86.138-51.104-86.137
					c-28.181,0-51.109,38.642-51.109,86.139c0,0.216,0.009,0.431,0.01,0.647c-0.004,0.436-0.01,0.871-0.01,1.309
					c0,16.129-1.989,16.917-10.058,16.917c-8.069,0-20.282,0-20.282,0c-6.289,0-7.586-8.047-7.586-16.688v-35.779
					C344.77,483.106,345.616,469.861,348.372,462.211z"/>
				<path style="fill:#7E5C42;" d="M539.031,332.575c9.347-11.302,25.429-34.027,45.642-34.027h115.028
					c5.349,0,10.496,3.32,12.552,5.223c0,0,9.633,12.133,21.145,25.522c11.513,13.389,9.406,23.662,9.406,23.662v25.911
					c0,0,0.639,13.208-11.098,13.208c-8.433,0-134.59,0-197.202,0c-20.898,0-34.717-8.802-34.717-8.802
					C507.802,374.06,527.328,346.725,539.031,332.575z"/>
				<path style="fill:#2B2C2E;" d="M529.902,383.271c-18.195,0-30.114,0-30.114,0c6.163-7.083,19.129-24.878,30.114-39.158V383.271z
					"/>
				<path style="fill:#7E5C42;" d="M218.033,373.549c0,0,19.578-25.588,31.494-39.996c5.646-6.826,12.478-15.208,12.478-15.208
					c2.719-3.335,8.465-6.065,12.768-6.065h9.78c-4.303,0-10.049,2.729-12.768,6.065c0,0-6.832,8.381-12.478,15.208
					c-11.916,14.408-31.494,39.996-31.494,39.996c-2.615,3.418-1.234,6.214,3.07,6.214h-9.78
					C216.799,379.763,215.418,376.967,218.033,373.549z"/>
				<path style="fill:#8C98A4;" d="M560.874,360.692c-4.075,0-3.359-4.304-3.359-4.304l0.251-5.882c0,0,2.301-7.824-9.212-21.213
					c-1.197-1.392-2.371-2.768-3.518-4.12c9.57-11.678,23.245-26.625,39.637-26.625h115.028c5.349,0,10.496,3.32,12.552,5.223
					c0,0,9.633,12.133,21.145,25.522c11.512,13.389,9.212,23.662,9.212,23.662l0.088,7.737
					C742.698,360.692,573.099,360.692,560.874,360.692z"/>
				<path style="fill:#7E5C42;" d="M713.649,305.516H564.966c5.981-4.147,12.587-6.968,19.707-6.968h115.028
					c5.349,0,10.496,3.32,12.552,5.223C712.253,303.771,712.751,304.398,713.649,305.516z"/>
				<path style="fill:#8EB238;" d="M630.967,400.387c0-67.975-14.997-106.934-14.997-106.934h17.116
					c0,0,14.997,38.959,14.997,106.934c0,40.368-10.176,23.009-18.442,10.194C630.482,405.896,630.967,409.176,630.967,400.387z"/>
				<path style="fill:#7E5C42;" d="M619.643,298.547c3.501,11.21,11.279,49.401,12.956,93.526c-5.582,0-2.509,0-8.313,0
					c-1.677-44.125-9.455-82.315-12.956-93.526H619.643z"/>
				<path style="fill:#7E5C42;" d="M735.958,370.063l-0.194-17.108c0,0,2.301-10.273-9.212-23.662
					c-11.513-13.389-21.145-25.522-21.145-25.522c-2.056-1.903-7.203-5.223-12.552-5.223h6.846c5.349,0,10.496,3.32,12.552,5.223
					c0,0,9.633,12.133,21.145,25.522c11.512,13.389,9.212,23.662,9.212,23.662l0.194,17.108c0,0,0.639,13.208-11.098,13.208
					c-0.984,0-3.352,0-6.846,0C736.597,383.271,735.958,370.063,735.958,370.063z"/>
				<g>
					<path style="fill:#7E5C42;" d="M440.586,370.063l-0.194-17.108c0,0,2.301-10.273-9.212-23.662
						c-5.449-6.337-10.475-12.391-14.259-17.012h101.466c4.304,0,5.612,2.739,2.907,6.086c0,0-6.222,7.7-11.604,14.208
						c-12.383,14.973-32.365,40.983-32.365,40.983c-2.622,3.413-8.288,6.205-12.591,6.205h-27.086
						C440.863,375.85,440.586,370.063,440.586,370.063z"/>
				</g>
				<path style="fill:#3E3B44;" d="M289.627,523.861c0,3.095,2.533,5.628,5.628,5.628h32.756c3.095,0,5.628-2.533,5.628-5.628
					v-23.954c0-3.095-2.533-5.628-5.628-5.628h-32.756c-3.095,0-5.628,2.533-5.628,5.628V523.861z"/>
				<path style="fill:#3E3B44;" d="M135.095,529.73c0,3.095,2.533,5.628,5.628,5.628h130.561c3.095,0,5.628-2.533,5.628-5.628
					v-29.822c0-3.095-2.533-5.628-5.628-5.628H140.723c-3.096,0-5.628,2.533-5.628,5.628V529.73z"/>
				<path style="fill:#3E3B44;" d="M78.368,523.861c0,3.095,2.533,5.628,5.628,5.628h32.756c3.095,0,5.628-2.533,5.628-5.628
					v-23.954c0-3.095-2.533-5.628-5.628-5.628H83.996c-3.095,0-5.628,2.533-5.628,5.628V523.861z"/>
				<path style="fill:#FFFFFF;" d="M166.393,522.013c0,0.884,0.724,1.608,1.608,1.608h86.765c0.884,0,1.608-0.724,1.608-1.608
					v-21.235c0-0.884-0.724-1.608-1.608-1.608h-86.765c-0.884,0-1.608,0.724-1.608,1.608V522.013z"/>
				<path style="fill:#7E5C42;" d="M345.781,312.281h19.072c-3.518,14.647-7.682,37.521-9.062,67.482h-19.072
					C338.099,349.802,342.263,326.928,345.781,312.281z"/>
				<path style="fill:#7E5C42;" d="M521.293,318.367c0,0-6.222,7.7-11.604,14.208c-12.383,14.973-32.365,40.983-32.365,40.983
					c-0.642,0.836-1.468,1.633-2.41,2.363c1.014-3.035,0.883-5.858,0.883-5.858l-0.195-17.108c0,0,2.301-10.273-9.212-23.662
					c-5.449-6.337-10.475-12.391-14.259-17.012h66.256C522.69,312.281,523.998,315.02,521.293,318.367z"/>
				<path style="opacity:0.6;fill:#B39DC4;" d="M141.941,494.28h7.091h7.824h113.21c3.765,0,6.846,3.081,6.846,6.846v6.846
					c0-3.766-3.081-6.846-6.846-6.846H150.01v27.385c0,3.766,3.081,6.846,6.846,6.846h-7.824c-3.765,0-6.846-3.081-6.846-6.846
					v-27.385h-0.245c-3.766,0-6.846,3.081-6.846,6.846v-6.846C135.095,497.36,138.176,494.28,141.941,494.28z"/>
				<path style="opacity:0.6;fill:#B39DC4;" d="M85.54,494.28h7.091h7.824h15.404c3.766,0,6.846,3.081,6.846,6.846v6.846
					c0-3.766-3.081-6.846-6.846-6.846H93.609v21.517c0,3.766,3.081,6.846,6.846,6.846h-7.824c-3.766,0-6.846-3.081-6.846-6.846
					v-21.517H85.54c-3.765,0-6.846,3.081-6.846,6.846v-6.846C78.694,497.36,81.775,494.28,85.54,494.28z"/>
				<path style="opacity:0.6;fill:#B39DC4;" d="M296.474,494.28h7.091h7.824h15.404c3.766,0,6.846,3.081,6.846,6.846v6.846
					c0-3.766-3.081-6.846-6.846-6.846h-22.251v21.517c0,3.766,3.081,6.846,6.846,6.846h-7.824c-3.766,0-6.846-3.081-6.846-6.846
					v-21.517h-0.245c-3.766,0-6.846,3.081-6.846,6.846v-6.846C289.627,497.36,292.708,494.28,296.474,494.28z"/>
				<path style="fill:#AD5050;" d="M140.963,494.28h7.824c-3.765,0-6.846,3.081-6.846,6.846v27.385c0,3.766,3.081,6.846,6.846,6.846
					h-7.824c-3.765,0-6.846-3.081-6.846-6.846v-27.385C134.117,497.36,137.198,494.28,140.963,494.28z"/>
				<path style="fill:#AD5050;" d="M295.496,494.28h7.824c-3.765,0-6.846,3.081-6.846,6.846v21.517c0,3.766,3.081,6.846,6.846,6.846
					h-7.824c-3.766,0-6.846-3.081-6.846-6.846v-21.517C288.649,497.36,291.73,494.28,295.496,494.28z"/>
				<path style="fill:#AD5050;" d="M85.215,494.28h7.824c-3.766,0-6.846,3.081-6.846,6.846v21.517c0,3.766,3.081,6.846,6.846,6.846
					h-7.824c-3.766,0-6.846-3.081-6.846-6.846v-21.517C78.368,497.36,81.449,494.28,85.215,494.28z"/>
				<path style="fill:#AD5050;" d="M133.259,465.341l1.992-13.292c0.797-5.32,5.851-9.673,11.23-9.673h9.78
					c-5.379,0-10.433,4.353-11.23,9.673l-1.992,13.292c-0.797,5.32,2.952,9.673,8.331,9.673h-9.781
					C136.211,475.013,132.462,470.661,133.259,465.341z"/>
				<path style="fill:#2B2C2E;" d="M438.9,356.432c14.988,0,28.148,7.965,35.479,19.882c-2.852,2.038-6.59,3.449-9.646,3.449h-0.735
					c-5.658-7.739-14.799-12.78-25.098-12.78s-19.44,5.04-25.098,12.78h-12.282C408.304,365.958,422.508,356.432,438.9,356.432z"/>
				<path style="fill:#D0E229;" d="M487.964,392.25c-1.679,2.055-0.882,3.735,1.771,3.735h61.098c2.653,0,4.824-2.171,4.824-4.824
					V370.49c0-2.653-2.171-4.824-4.824-4.824h-36.32c-2.653,0-6.198,1.681-7.877,3.735L487.964,392.25z"/>
				<polygon style="fill:#8EB238;" points="511.645,360.776 531.858,397.126 481,397.126 501.212,361.917 				"/>
				<g>
					<path style="fill:#6A8421;" d="M640.259,536.63c-1.11,0-2.01-0.9-2.01-2.01V400.387c0-66.75-14.714-105.825-14.863-106.212
						c-0.398-1.036,0.119-2.199,1.155-2.597c1.035-0.398,2.198,0.118,2.597,1.154c0.151,0.393,15.131,40.089,15.131,107.656V534.62
						C642.269,535.73,641.369,536.63,640.259,536.63z"/>
				</g>
				<path style="fill:#CAD5D7;" d="M430.505,484.755c-12.566,3.934-22.091,22.732-22.091,45.347c0,3.318,0.205,6.553,0.595,9.672
					c2.266,18.136,10.773,32.319,21.495,35.675c10.721-3.356,19.228-17.541,21.494-35.678c0.39-3.119,0.595-6.354,0.595-9.672
					C452.592,507.486,443.068,488.689,430.505,484.755z"/>
				<path style="fill:#E2F1F2;" d="M439.307,499.481c-8.486,2.657-14.918,15.35-14.918,30.621c0,2.241,0.138,4.425,0.402,6.531
					c1.53,12.247,7.275,21.824,14.515,24.09c7.239-2.266,12.984-11.845,14.514-24.092c0.263-2.106,0.402-4.291,0.402-6.531
					C454.222,514.83,447.79,502.137,439.307,499.481z"/>
				<g>
					<g style="enable-background:new    ;">
						<g>
							<g>
								<path style="fill:#8C98A4;" d="M772.497,483.985c-14.902,0.001-26.981,20.647-26.981,46.117
									c0,3.318,0.205,6.553,0.595,9.672c2.601,20.82,13.427,36.436,26.387,36.436c12.957-0.001,23.782-15.618,26.383-36.438
									c0.39-3.12,0.595-6.354,0.595-9.672C799.475,504.629,787.395,483.985,772.497,483.985L772.497,483.985z"/>
								<path style="fill:#CAD5D7;" d="M772.497,577.818c-13.692,0.001-25.199-15.561-27.982-37.844
									c-0.403-3.223-0.607-6.544-0.607-9.871c0-26.315,12.825-47.724,28.589-47.725c7.801-0.001,15.068,5.079,20.464,14.301
									c5.238,8.952,8.122,20.821,8.122,33.42c0,3.326-0.204,6.647-0.607,9.872C797.692,562.254,786.187,577.817,772.497,577.818z
									 M772.497,485.593c-13.991,0.001-25.374,19.967-25.373,44.509c0,3.194,0.196,6.381,0.583,9.473
									c2.536,20.297,12.962,35.028,24.791,35.027v1.608v-1.608c11.827-0.001,22.252-14.733,24.788-35.03
									c0.386-3.093,0.582-6.279,0.582-9.473c0-12.037-2.728-23.329-7.682-31.796C785.389,490.107,779.108,485.593,772.497,485.593
									z"/>
							</g>
						</g>
					</g>
				</g>
				<path style="fill:#CAD5D7;" d="M767.607,484.755c-12.566,3.934-22.091,22.732-22.091,45.347c0,3.318,0.205,6.553,0.595,9.672
					c2.266,18.136,10.773,32.319,21.495,35.675c10.721-3.356,19.228-17.541,21.494-35.678c0.39-3.119,0.595-6.354,0.595-9.672
					C789.694,507.486,780.169,488.689,767.607,484.755z"/>
				<path style="fill:#4B4554;" d="M585.977,419.014c0,1.769,1.447,3.216,3.216,3.216h34.646c1.769,0,3.216-1.447,3.216-3.216
					v-10.195c0-1.769-1.447-3.216-3.216-3.216h-34.646c-1.769,0-3.216,1.447-3.216,3.216V419.014z"/>
				<path style="fill:#4B4554;" d="M501.677,496.96c0,1.769,1.447,3.216,3.216,3.216h195.95c1.769,0,3.216-1.447,3.216-3.216v-1.886
					c0-1.769-1.447-3.216-3.216-3.216h-195.95c-1.769,0-3.216,1.447-3.216,3.216V496.96z"/>
				<path style="fill:#4B4554;" d="M828.298,496.96c0,1.769,1.447,3.216,3.216,3.216h9.395c1.769,0,3.216-1.447,3.216-3.216v-1.886
					c0-1.769-1.447-3.216-3.216-3.216h-9.395c-1.769,0-3.216,1.447-3.216,3.216V496.96z"/>
				<path style="fill:#4B4554;" d="M698.981,419.014c0,1.769,1.447,3.216,3.216,3.216h34.646c1.769,0,3.216-1.447,3.216-3.216
					v-10.195c0-1.769-1.447-3.216-3.216-3.216h-34.646c-1.769,0-3.216,1.447-3.216,3.216V419.014z"/>
				<path style="fill:#E2F1F2;" d="M776.734,499.481c-8.486,2.657-14.918,15.35-14.918,30.621c0,2.241,0.138,4.425,0.402,6.531
					c1.53,12.247,7.275,21.824,14.515,24.09c7.239-2.266,12.984-11.845,14.515-24.092c0.263-2.106,0.402-4.291,0.402-6.531
					C791.65,514.83,785.218,502.137,776.734,499.481z"/>
				<path style="fill:#FFFDF4;" d="M365.909,436.385c-12.551,0-34.514,0.012-42.708,0.012c-7.498,0-13.448,2.775-15.812,12.634
					c-2.621,10.928-2.985,11.837-4.616,18.12c-1.332,5.132,0.627,8.155,6.007,8.155c10.248,0,34.359,0,43.111,0
					c13.041,0,15.16-2.417,19.561-18.843C375.852,440.035,376.667,436.385,365.909,436.385z"/>
				<path style="fill:#F7F5EB;" d="M115.119,436.396c-4.659,0-21.436-0.004-35.23-0.007c-0.105,0.276-0.22,0.543-0.321,0.822
					l-9.301,25.978c-1.178,3.269-2.004,7.562-2.567,12.078c1.401,0.024,2.864,0.037,4.411,0.037c10.946,0,28.541,0,36.905,0
					c5.379,0,8.933-3.023,10.308-8.154c1.684-6.283,1.799-7.192,4.943-18.12C127.103,439.171,122.617,436.396,115.119,436.396z"/>
				<path style="opacity:0.4;fill:#84A599;" d="M365.909,436.385c-3.482,0-3.776,0.001-8.212,0.002l-9,25.138
					c-1.325,3.677-2.205,8.65-2.765,13.78c4.024,0,3.597,0,5.958,0c13.041,0,15.16-2.416,19.561-18.843
					C375.852,440.035,376.667,436.385,365.909,436.385z"/>
				<path style="fill:#F9A928;" d="M495.67,446.747c0,2.653,2.171,4.824,4.824,4.824h11.869c2.653,0,4.824-2.171,4.824-4.824v-6.001
					c0-2.653-2.171-4.824-4.824-4.824h-11.869c-2.653,0-4.824,2.171-4.824,4.824V446.747z"/>
				<path style="fill:#EB6C1C;" d="M824.987,421.904v20.539c0,5.379,4.401,9.78,9.781,9.78h5.497c0-0.583,0-1.219,0-1.931v-14.299
					c0-3.607-0.12-13.531-2.699-23.871h-2.798C829.388,412.123,824.987,416.524,824.987,421.904z"/>
				<g style="opacity:0.3;">
					<path style="fill:#FFFFFF;" d="M317.461,375.236l117.979-56.104c2.603-1.238,7.415-2.323,10.296-2.323h70.831l-47.576,55.127
						c-1.464,1.696-4.966,3.3-7.207,3.3H317.461z"/>
				</g>
			</g>
			<path style="fill:#3E3B44;" d="M360.34,421.518c-3.061,1.134-8.236,2.062-11.5,2.062h-33.236c-3.264,0-6.917,2.483-8.118,5.519
				l-16.604,41.981c-1.201,3.035-4.854,5.519-8.118,5.519H133.202c-3.264,0-5.521-2.639-5.016-5.863l6.471-41.293
				c0.505-3.225-1.752-5.863-5.016-5.863h-18.366c-3.264,0-3.414-0.883-0.334-1.962l79.175-28.917
				c3.081-1.079,8.272-1.962,11.536-1.962h235.817c3.264,0,3.431,0.928,0.37,2.062L360.34,421.518z"/>
			<defs>
				<filter id="Adobe_OpacityMaskFilter" filterUnits="userSpaceOnUse" x="168.691" y="397.903" width="215.01" height="75.559">
					<feColorMatrix  type="matrix" values="1 0 0 0 0  0 1 0 0 0  0 0 1 0 0  0 0 0 1 0"/>
				</filter>
			</defs>
			
				<mask maskUnits="userSpaceOnUse" x="168.691" y="397.903" width="215.01" height="75.559" id="SVGID_00000099635497501782805900000013266220658483147966_">
				<g style="filter:url(#Adobe_OpacityMaskFilter);">
					<path style="fill:#FFFFFF;" d="M379.835,414.087c-2.919,1.081-21.646,9.951-30.4,9.951h-34.218
						c-3.112,0-6.596,2.368-7.741,5.262l-15.833,40.03c-1.145,2.894-4.628,5.262-7.741,5.262H141.962
						c-3.113,0-5.265-2.516-4.783-5.591l6.17-39.373c0.482-3.075-1.67-5.591-4.783-5.591h-20.75c-3.113,0-3.256-0.842-0.318-1.871
						l78.733-27.573c2.938-1.029,7.888-1.87,11-1.87h224.857c3.113,0,3.271,0.885,0.353,1.966L379.835,414.087z"/>
				</g>
			</mask>
			<g style="mask:url(#SVGID_00000099635497501782805900000013266220658483147966_);">
				<g>
					<polygon style="fill:#90ADAC;" points="205.607,443.927 191.363,443.927 191.363,412.849 216.195,413.46 					"/>
					<polygon style="fill:#B8E0E0;" points="191.578,443.927 177.334,443.927 177.334,412.849 202.369,412.849 					"/>
					<path style="fill:#B8E0E0;" d="M216.182,407.237c0-0.89-0.728-1.619-1.619-1.619h-35.61c-0.89,0-1.619,0.728-1.619,1.619v6.416
						c0,0.89,0.728,1.619,1.619,1.619h35.61c0.89,0,1.619-0.728,1.619-1.619V407.237z"/>
					<path style="fill:#90ADAC;" d="M216.182,413.496v-4.316c0-0.89-0.728-1.619-1.619-1.619h-10.857
						c-0.89,0-1.619,0.728-1.619,1.619v7.554L216.182,413.496z"/>
					<polygon style="fill:#A3C9C8;" points="177.334,419.512 177.334,443.927 191.578,443.927 200.056,419.512 					"/>
					<path style="fill:#FFFFFF;" d="M187.586,420.294c0,0.89-0.728,1.619-1.619,1.619h-4.748c-0.89,0-1.619-0.728-1.619-1.619
						v-9.604c0-0.89,0.728-1.619,1.619-1.619h4.748c0.89,0,1.619,0.728,1.619,1.619V420.294z"/>
					<rect x="185.589" y="399.141" style="fill:#FFCD5C;" width="16.996" height="6.475"/>
					<rect x="185.589" y="399.141" style="opacity:0.3;fill:#FFBC64;" width="7.624" height="6.475"/>
					<rect x="185.589" y="404.32" style="fill:#488593;" width="16.996" height="1.295"/>
				</g>
				<g>
					<path style="fill:#545659;" d="M383.701,453.584h-5.503v-6.313h-13.219v-5.503h14.352c2.41,0,4.37,1.96,4.37,4.37V453.584z"/>
				</g>
				<rect x="274.227" y="405.025" style="fill:#666A7F;" width="80.285" height="36.905"/>
				<path style="fill:#ABB3C9;" d="M295.269,433.837c0,4.451-3.642,8.093-8.093,8.093h-74.414c-4.451,0-8.093-3.642-8.093-8.093
					v-20.719c0-4.451,3.642-8.093,8.093-8.093h74.414c4.451,0,8.093,3.642,8.093,8.093V433.837z"/>
				<path style="fill:#666A7F;" d="M269.991,427.257c0,1.718-1.406,3.124-3.124,3.124h-41.972c-1.718,0-3.124-1.406-3.124-3.124
					v-19.002c0-1.718,1.406-3.124,3.124-3.124h41.972c1.718,0,3.124,1.406,3.124,3.124V427.257z"/>
				<g style="opacity:0.4;">
					<path style="fill:#545659;" d="M352.245,412.119c1.246,0,2.266-1.02,2.266-2.266v-4.828c0-1.246-1.019-2.313-2.264-2.37
						l-51.801-2.382c-1.245-0.057-3.284-0.104-4.53-0.104h-42.087c-1.246,0-3.286,0-4.532,0h-43.124
						c-1.246,0-2.266,1.02-2.266,2.266v14.061c0,1.246,1.02,2.266,2.266,2.266h86.824c1.246,0,2.266-1.02,2.266-2.266v-2.111
						c0-1.246,1.02-2.266,2.266-2.266H352.245z"/>
				</g>
				<circle style="fill:#E67F92;" cx="196.536" cy="409.072" r="10.767"/>
				<path style="fill:#545659;" d="M354.871,406.615c1.246,0,1.77-0.891,1.163-1.979l-2.649-4.753
					c-0.607-1.089-2.123-1.979-3.369-1.979h-51.832c-1.246,0-3.286,0-4.532,0h-42.087c-1.246,0-3.286,0-4.532,0h-44.025
					c-1.246,0-2.622,0.956-3.057,2.124l-4.569,12.263c-0.435,1.168,0.229,2.124,1.475,2.124H287.5c1.246,0,2.622-0.956,3.057-2.124
					l1.323-3.551c0.435-1.168,1.811-2.124,3.057-2.124H354.871z"/>
				<g style="opacity:0.5;">
					<path style="fill:#4A4751;" d="M354.871,406.615c1.246,0,1.77-0.891,1.163-1.979l-2.649-4.753
						c-0.607-1.089-2.123-1.979-3.369-1.979h-51.832c-1.246,0-3.131,0-4.189,0s-2.943,0-4.189,0h-0.707
						c-1.246,0-2.622,0.956-3.057,2.124l-4.569,12.263c-0.435,1.168,0.229,2.124,1.475,2.124h4.552c1.246,0,2.622-0.956,3.057-2.124
						l1.323-3.551c0.435-1.168,1.811-2.124,3.057-2.124H354.871z"/>
				</g>
				<g>
					<path style="fill:#3E3B44;" d="M317.435,423.572c-0.103,0-0.207-0.012-0.312-0.035c-0.748-0.172-1.215-0.917-1.043-1.664
						c0.631-2.75,4.348-12.985,9.07-14.624c1.35-0.469,2.664-0.231,3.803,0.684c1.68,1.35,2.49,2.777,3.082,3.818
						c0.903,1.589,1.146,2.017,3.898,1.446c0.752-0.156,1.486,0.327,1.642,1.078c0.156,0.751-0.327,1.486-1.078,1.642
						c-4.395,0.911-5.622-0.584-6.877-2.794c-0.56-0.987-1.139-2.007-2.406-3.024c-0.385-0.31-0.72-0.375-1.152-0.225
						c-2.795,0.97-6.39,8.768-7.274,12.621C318.64,423.137,318.068,423.572,317.435,423.572z"/>
				</g>
				<g>
					<path style="fill:#3E3B44;" d="M328.445,423.572c-0.103,0-0.207-0.012-0.312-0.035c-0.748-0.172-1.215-0.917-1.043-1.664
						c0.631-2.75,4.348-12.985,9.071-14.624c1.349-0.469,2.664-0.231,3.802,0.684c1.68,1.35,2.49,2.776,3.082,3.818
						c0.902,1.589,1.145,2.017,3.898,1.446c0.752-0.156,1.486,0.327,1.642,1.078c0.156,0.751-0.327,1.486-1.078,1.642
						c-4.394,0.911-5.622-0.583-6.877-2.794c-0.56-0.986-1.139-2.006-2.406-3.024c-0.385-0.31-0.719-0.375-1.152-0.225
						c-2.795,0.97-6.39,8.768-7.274,12.621C329.65,423.137,329.078,423.572,328.445,423.572z"/>
				</g>
				<polygon style="fill:#545659;" points="302.391,414.521 300.449,424.211 321.167,426.175 322.894,417.327 				"/>
				<path style="opacity:0.5;fill:#4A4751;" d="M302.158,415.685c1.238,1.933,5.21,5.127,10.377,5.851l0.755,2.806l8.096,0.712
					l1.508-7.726l-7.165-0.98l-13.523-0.9L302.158,415.685z"/>
				<rect x="220.412" y="425.671" style="fill:#545659;" width="31.242" height="13.365"/>
				<g>
					<path style="fill:#CFD9E8;" d="M322.742,443.568c0.312,1.753-0.889,3.187-2.67,3.187h-57.62c-1.781,0-3.237-1.457-3.237-3.237
						v-18.289c0-1.78,1.457-3.237,3.237-3.237h53.212c1.78,0,3.493,1.434,3.805,3.187L322.742,443.568z"/>
					<path style="fill:#B0B0B3;" d="M274.066,446.462c0,6.798-3.885,13.111-8.093,19.909l-0.162,0.162
						c2.59,3.237,13.92,7.446,18.129,0.647c4.208-6.798,8.093-13.92,8.093-20.719H274.066z"/>
					
						<ellipse transform="matrix(0.1768 -0.9842 0.9842 0.1768 -258.526 579.5557)" style="fill:#959FBA;" cx="217.203" cy="444.328" rx="22.187" ry="22.187"/>
					<path style="fill:#56595E;" d="M189.616,433.483c0,0.89-0.728,1.619-1.619,1.619h-17.642c-0.89,0-1.619-0.728-1.619-1.619
						v-8.416c0-0.89,0.728-1.619,1.619-1.619h17.642c0.89,0,1.619,0.728,1.619,1.619V433.483z"/>
					<path style="fill:#CFD9E8;" d="M256.174,423.946h8.415c13.677,0,23.76,9.133,23.76,22.81h25.049l-13.597-24.81
						c0,0-37.39,0-41.275,0C255.451,421.945,256.174,423.946,256.174,423.946z"/>
					<path style="fill:#FC5938;" d="M189.616,429.737v-4.67c0-0.89-0.728-1.619-1.619-1.619h-17.642
						c-0.89,0-1.619,0.728-1.619,1.619v4.67H189.616z"/>
					<rect x="168.691" y="429.629" style="fill:#363638;" width="21.005" height="1.124"/>
					<polygon style="fill:#666A7F;" points="278.759,432.704 284.1,430.276 312.482,453.007 290.09,459.25 					"/>
					<rect x="172.621" y="435.131" style="fill:#363638;" width="12.862" height="4.747"/>
					<g>
						<path style="fill:#BCC6D9;" d="M211.536,464.953c-11.373,0-20.626-9.253-20.626-20.625c0-11.372,9.253-20.624,20.625-20.624
							c11.373,0,20.626,9.253,20.626,20.625C232.161,455.701,222.908,464.953,211.536,464.953L211.536,464.953z"/>
						<g>
							<path style="fill:#CFD9E8;" d="M211.536,425.266c10.511,0,19.063,8.552,19.063,19.063
								c-0.001,10.511-8.553,19.062-19.064,19.062c-10.511,0-19.063-8.552-19.063-19.063c0.001-5.092,1.983-9.879,5.584-13.479
								C201.657,427.249,206.444,425.266,211.536,425.266L211.536,425.266L211.536,425.266z M211.536,422.142
								c-12.254,0-22.188,9.933-22.188,22.186c0,12.253,9.934,22.186,22.187,22.187c12.254,0.001,22.188-9.933,22.188-22.186
								C233.723,432.075,223.79,422.142,211.536,422.142L211.536,422.142z"/>
						</g>
					</g>
					
						<ellipse transform="matrix(0.2298 -0.9732 0.9732 0.2298 -270.6368 549.9289)" style="opacity:0.2;fill:#403E38;" cx="212.114" cy="445.946" rx="14.591" ry="14.591"/>
					<circle style="fill:#444444;" cx="209.2" cy="444.328" r="12.665"/>
					<path style="fill:#3E3B44;" d="M196.985,444.328c0-7.417,6.013-13.43,13.431-13.429c7.418,0,13.431,6.013,13.43,13.431
						c0,7.417-6.013,13.43-13.431,13.429C202.998,457.758,196.985,451.745,196.985,444.328z"/>
					<circle style="fill:#D3AB90;" cx="209.2" cy="444.328" r="8.638"/>
					<path style="fill:#959FBA;" d="M267.47,473.462c13.677,0,24.764-11.087,24.764-24.764c0-13.677-11.087-24.764-24.764-24.764
						h-11.197l-0.175,49.528H267.47z"/>
					<path style="opacity:0.4;fill:#666A7F;" d="M269.155,473.44c18.129-1.727,22.153-15.48,23.12-23.632l-11.816-1.7l-0.081,1.376
						h-26.343l0.93,23.956H269.155z"/>
					
						<ellipse transform="matrix(0.9239 -0.3827 0.3827 0.9239 -152.1872 132.2993)" style="fill:#CFD9E8;" cx="256.463" cy="448.698" rx="24.764" ry="24.764"/>
					<g>
						<polygon style="fill:#444444;" points="256.465,448.702 241.38,430.725 248.437,426.648 256.464,448.7 						"/>
						<polygon style="fill:#444444;" points="256.471,448.704 233.36,452.779 233.358,444.629 256.468,448.704 						"/>
						<polygon style="fill:#444444;" points="256.476,448.7 248.45,470.752 241.39,466.679 256.475,448.702 						"/>
						<polygon style="fill:#444444;" points="256.475,448.694 271.559,466.671 264.502,470.747 256.476,448.696 						"/>
						<polygon style="fill:#444444;" points="256.469,448.691 279.579,444.616 279.581,452.767 256.471,448.692 						"/>
						<polygon style="fill:#444444;" points="256.464,448.696 264.49,426.644 271.549,430.717 256.465,448.694 						"/>
						<g>
							<path style="fill:#D8E1EF;" d="M256.463,428.12c11.347,0,20.578,9.231,20.578,20.578c0,11.347-9.231,20.578-20.578,20.578
								c-11.347,0-20.578-9.232-20.578-20.578C235.885,437.351,245.116,428.12,256.463,428.12L256.463,428.12z M256.463,423.955
								c-13.665,0-24.744,11.078-24.744,24.743c0,13.666,11.078,24.744,24.744,24.744s24.743-11.078,24.743-24.744
								C281.206,435.032,270.128,423.955,256.463,423.955L256.463,423.955z"/>
						</g>
					</g>
					
						<ellipse transform="matrix(0.2298 -0.9732 0.9732 0.2298 -239.1551 595.21)" style="fill:#959FBA;" cx="256.463" cy="448.698" rx="14.86" ry="14.86"/>
					
						<ellipse transform="matrix(0.7071 -0.7071 0.7071 0.7071 -243.123 313.6146)" style="opacity:0.4;fill:#403E38;" cx="257.005" cy="450.283" rx="7.612" ry="7.612"/>
					<path style="fill:#3E3B44;" d="M255.78,456.046c3.7,0,6.699-2.999,6.699-6.699c0-3.7-2.999-6.699-6.699-6.699h-3.7v13.398
						H255.78z"/>
					<g>
						<g>
							
								<rect x="278.582" y="421.451" transform="matrix(0.1915 -0.9815 0.9815 0.1915 -212.6807 637.572)" style="fill:#433F4C;" width="4.166" height="52.864"/>
						</g>
						<g>
							<path style="fill:#433F4C;" d="M249.279,448.293l-4.145-0.417c0.419-4.168,3.898-7.311,8.092-7.311
								c0.785,0,1.562,0.112,2.31,0.333l-1.182,3.995c-0.364-0.108-0.743-0.162-1.128-0.162
								C251.18,444.731,249.483,446.262,249.279,448.293z"/>
						</g>
						<g>
							<path style="fill:#36333B;" d="M218.328,454.24l-1.097-1.19c2.431-2.24,3.825-5.418,3.825-8.721
								c0-6.537-5.318-11.856-11.855-11.856c-5.125,0-9.649,3.266-11.258,8.128l-1.537-0.509c1.829-5.525,6.97-9.238,12.794-9.238
								c7.43,0,13.474,6.045,13.474,13.474C222.675,448.082,221.09,451.694,218.328,454.24z"/>
						</g>
					</g>
					<circle style="fill:#FFFFFF;stroke:#D3AB90;stroke-width:2.5898;stroke-miterlimit:10;" cx="253.433" cy="449.085" r="5.644"/>
				</g>
				<path style="fill:#959FBA;" d="M381.01,443.568c0.312,1.753-0.889,3.187-2.67,3.187h-64.095c-1.781,0-3.237-1.457-3.237-3.237
					v-18.289c0-1.78,1.457-3.237,3.237-3.237h59.687c1.78,0,3.492,1.434,3.805,3.187L381.01,443.568z"/>
				<path style="opacity:0.2;fill:#666A7F;" d="M321.653,454.07c0,0-0.971-3.453-5.665-5.126c-3.644-1.298-8.633-2.158-8.633-2.158
					h15.269c0,0-0.108,2.185-0.297,3.507C322.139,451.615,321.653,454.07,321.653,454.07z"/>
				<path style="opacity:0.2;fill:#666A7F;" d="M335.25,454.07c0,0-0.971-3.453-5.665-5.126c-3.644-1.298-8.633-2.158-8.633-2.158
					h15.269c0,0-0.108,2.185-0.297,3.507C335.735,451.615,335.25,454.07,335.25,454.07z"/>
				<path style="opacity:0.2;fill:#666A7F;" d="M349.413,454.07c0,0-0.971-3.453-5.665-5.126c-3.644-1.298-8.633-2.158-8.633-2.158
					h15.269c0,0-0.108,2.185-0.297,3.507C349.898,451.615,349.413,454.07,349.413,454.07z"/>
				<path style="opacity:0.2;fill:#666A7F;" d="M362.443,454.07c0,0-0.971-3.453-5.665-5.126c-3.644-1.298-8.633-2.158-8.633-2.158
					h15.269c0,0-0.108,2.185-0.297,3.507C362.928,451.615,362.443,454.07,362.443,454.07z"/>
				<path style="opacity:0.2;fill:#666A7F;" d="M374.987,454.07c0,0-0.971-3.453-5.665-5.126c-3.644-1.298-8.633-2.158-8.633-2.158
					h15.269c0,0-0.108,2.185-0.297,3.507C375.473,451.615,374.987,454.07,374.987,454.07z"/>
				<path style="fill:#959FBA;" d="M251.627,449.085c0,0.997,0.808,1.806,1.806,1.806c0.997,0,1.806-0.808,1.806-1.806
					c0-0.997-0.808-1.806-1.806-1.806C252.436,447.279,251.627,448.088,251.627,449.085z"/>
				<path style="fill:#FFFFFF;" d="M207.148,444.328c0-1.133,0.919-2.052,2.052-2.052c1.133,0,2.052,0.919,2.052,2.052
					c0,1.134-0.919,2.052-2.052,2.052C208.067,446.38,207.148,445.461,207.148,444.328z"/>
				<polygon style="fill:#666A7F;" points="377.82,447.595 292.356,447.595 292.356,445.977 380.518,445.977 				"/>
				<path style="fill:#F2A24C;" d="M324.42,418.617c-0.587,1.298-3.292,2.064-7.386,1.865c-6.012-0.291-12.742-2.552-15.032-5.05
					c-0.823-0.897-0.96-1.703-0.52-2.354l0.614-3.151l23.193,4.958L324.42,418.617z"/>
				<path style="fill:#FFCD5C;" d="M324.599,412.854c2.29,2.498-0.728,4.286-6.74,3.995c-6.012-0.291-12.742-2.552-15.032-5.05
					c-2.29-2.498,0.728-4.286,6.74-3.995C315.579,408.096,322.309,410.357,324.599,412.854z"/>
				<g>
					<path style="fill:#3E3B44;" d="M339.67,423.572c-0.103,0-0.207-0.012-0.312-0.035c-0.748-0.172-1.215-0.917-1.043-1.664
						c0.631-2.75,4.348-12.985,9.071-14.624c1.349-0.469,2.664-0.231,3.803,0.684c1.68,1.35,2.49,2.776,3.081,3.818
						c0.903,1.589,1.146,2.017,3.898,1.446c0.751-0.156,1.486,0.327,1.642,1.078c0.156,0.751-0.327,1.486-1.078,1.642
						c-4.394,0.911-5.622-0.583-6.877-2.794c-0.56-0.986-1.139-2.006-2.406-3.024c-0.385-0.31-0.72-0.375-1.152-0.225
						c-2.795,0.97-6.39,8.768-7.274,12.621C340.875,423.137,340.303,423.572,339.67,423.572z"/>
				</g>
				<g>
					<path style="fill:#89685B;" d="M358.52,417.172c-0.289,0-2.521-0.083-2.521-0.083l-1.24,4.877h9.093l0.703-2.976
						L358.52,417.172z"/>
					<g>
						<path style="fill:#89685B;" d="M364.284,418.158c0.848,0.925-0.27,1.588-2.497,1.48c-2.227-0.108-4.721-0.946-5.569-1.871
							c-0.848-0.925,0.27-1.588,2.497-1.48C360.943,416.395,363.436,417.233,364.284,418.158z"/>
						<path style="fill:#959FBA;" d="M364.75,413.29c0.716,0.782-0.228,1.342-2.109,1.25c-1.881-0.091-3.987-0.799-4.703-1.582
							c-0.716-0.782,0.228-1.342,2.109-1.25C361.928,411.8,364.033,412.508,364.75,413.29z"/>
					</g>
				</g>
				<path style="fill:#F2A24C;" d="M322.692,413.117c-0.438,0.969-2.459,1.541-5.516,1.393c-4.49-0.217-9.516-1.906-11.226-3.771
					c-0.614-0.67-0.717-1.272-0.388-1.758l0.458-2.354l17.321,3.702L322.692,413.117z"/>
				<path style="fill:#FFCD5C;" d="M322.825,408.814c1.71,1.865-0.544,3.201-5.034,2.984c-4.49-0.217-9.516-1.906-11.226-3.771
					c-1.71-1.865,0.544-3.201,5.034-2.984C316.089,405.26,321.115,406.948,322.825,408.814z"/>
				<g>
					<path style="fill:#89685B;" d="M335.225,417.172c-0.289,0-2.521-0.083-2.521-0.083l-1.24,4.877h9.093l0.703-2.976
						L335.225,417.172z"/>
					<g>
						<path style="fill:#89685B;" d="M340.99,418.158c0.848,0.925-0.27,1.588-2.497,1.48s-4.72-0.946-5.569-1.871
							s0.27-1.588,2.497-1.48S340.142,417.233,340.99,418.158z"/>
						<path style="fill:#959FBA;" d="M340.996,415.495c0.716,0.782-0.228,1.341-2.109,1.25c-1.881-0.091-3.987-0.799-4.703-1.58
							c-0.716-0.781,0.228-1.341,2.109-1.25S340.279,414.714,340.996,415.495z"/>
					</g>
				</g>
				<g>
					<path style="fill:#89685B;" d="M347.294,417.172c-0.289,0-2.521-0.083-2.521-0.083l-1.24,4.877h9.093l0.703-2.976
						L347.294,417.172z"/>
					<g>
						<path style="fill:#89685B;" d="M353.059,418.158c0.848,0.925-0.27,1.588-2.497,1.48c-2.227-0.108-4.72-0.946-5.569-1.871
							c-0.848-0.925,0.27-1.588,2.497-1.48S352.211,417.233,353.059,418.158z"/>
						<path style="fill:#959FBA;" d="M353.522,413.436c0.719,0.783-0.228,1.345-2.115,1.255c-1.887-0.09-3.999-0.799-4.717-1.582
							c-0.719-0.784,0.228-1.345,2.115-1.255C350.691,411.944,352.804,412.652,353.522,413.436z"/>
						<path style="fill:#959FBA;" d="M341.419,413.471c0.714,0.778-0.227,1.335-2.101,1.245c-1.874-0.09-3.972-0.793-4.686-1.571
							c-0.714-0.778,0.227-1.335,2.101-1.245C338.607,411.99,340.705,412.693,341.419,413.471z"/>
						<path style="fill:#959FBA;" d="M364.503,416.056l0.481-2.041l-7.256-1.551l-0.401,1.859c-0.053,0.079-0.07,0.166-0.068,0.258
							l-0.009-0.002l-0.401,1.859c-0.138,0.204-0.095,0.456,0.163,0.737c0.716,0.782,2.822,1.489,4.703,1.581
							c1.281,0.062,2.128-0.178,2.311-0.584l0.481-2.041l-0.048-0.01C364.473,416.099,364.493,416.078,364.503,416.056z"/>
						<path style="fill:#959FBA;" d="M341.209,416.056l0.48-2.041l-7.257-1.551l-0.401,1.859c-0.053,0.079-0.07,0.166-0.068,0.258
							l-0.009-0.002l-0.401,1.859c-0.138,0.204-0.095,0.456,0.163,0.737c0.716,0.782,2.822,1.489,4.703,1.581
							c1.281,0.062,2.128-0.178,2.311-0.584l0.48-2.041l-0.047-0.01C341.179,416.099,341.199,416.078,341.209,416.056z"/>
						<path style="fill:#959FBA;" d="M353.278,416.056l0.481-2.041l-7.257-1.551l-0.401,1.859c-0.053,0.079-0.07,0.166-0.068,0.258
							l-0.009-0.002l-0.401,1.859c-0.138,0.204-0.095,0.456,0.162,0.737c0.716,0.782,2.822,1.489,4.703,1.581
							c1.281,0.062,2.128-0.178,2.311-0.584l0.481-2.041l-0.047-0.01C353.248,416.099,353.267,416.078,353.278,416.056z"/>
					</g>
				</g>
				<path style="fill:#CFD9E8;" d="M366.328,439.988c0,0.801-0.728,1.457-1.619,1.457h-54.063c-0.89,0-1.619-0.656-1.619-1.457
					c0-0.801,0.728-1.457,1.619-1.457h54.063C365.599,438.531,366.328,439.187,366.328,439.988z"/>
				<path style="fill:#BCC6D9;" d="M352.461,423.448c0,0.801-0.728,1.457-1.619,1.457h-48.668c-0.89,0-1.619-0.656-1.619-1.457
					c0-0.801,0.728-1.457,1.619-1.457h48.668C351.733,421.991,352.461,422.647,352.461,423.448z"/>
				<path style="fill:#BCC6D9;" d="M360.878,423.448c0,0.801-0.728,1.457-1.619,1.457h-2.428c-0.89,0-1.619-0.656-1.619-1.457
					c0-0.801,0.728-1.457,1.619-1.457h2.428C360.15,421.991,360.878,422.647,360.878,423.448z"/>
			</g>
			<polygon style="fill:#868960;" points="440.437,391.136 193.541,391.136 128.85,261.159 375.746,261.159 			"/>
			<g style="opacity:0.8;">
				<path style="fill:#3B3844;" d="M403.545,370.319c2.772,5.574-0.052,10.134-6.277,10.134H224.445
					c-6.225,0-13.587-4.56-16.359-10.134l-34.682-69.72c-2.773-5.574-2.072-14.272,1.557-19.33l7.829-10.913
					c3.629-5.058,11.691-9.197,17.916-9.197h101.603c6.225,0,15.7,2.597,21.055,5.771l31.04,18.399
					c5.355,3.174,12.005,10.332,14.777,15.905L403.545,370.319z"/>
			</g>
			<polygon style="fill:#8EB238;" points="375.746,261.159 370.998,261.159 436.833,393.191 440.868,391.678 			"/>
			<polygon style="fill:#8EB238;" points="377.662,265.141 375.77,261.097 115.595,266.55 117.178,270.457 171.713,270.457 
				157.14,271.743 158.722,275.616 294.952,275.616 307.943,270.457 364.073,270.457 			"/>
			<polygon style="fill:#D0E229;" points="375.746,260.851 128.85,260.851 115.397,266.192 169.933,266.192 156.942,271.351 
				293.172,271.351 306.163,266.192 362.293,266.192 			"/>
			<path style="fill:#9FA1C1;" d="M290.882,471.081l15.624-39.502H147.05v45.021h135.714
				C286.028,476.599,289.681,474.116,290.882,471.081z"/>
			<polygon style="opacity:0.6;fill:#9FA1C1;" points="147.05,438.383 307.93,438.383 309.651,434.794 147.05,434.794 			"/>
			<polygon style="opacity:0.2;fill:#3E3B44;" points="147.05,450.881 298.883,450.881 300.57,446.614 147.05,446.614 			"/>
			<polygon style="opacity:0.2;fill:#3E3B44;" points="147.05,465.917 292.948,465.917 294.635,461.65 147.05,461.65 			"/>
			<g style="opacity:0.4;">
				<path style="fill:#3E3B44;" d="M298.195,392.718l-102.082,1.978l42.336,36.797h68.09l0.947-2.394
					c1.2-3.035,4.853-5.519,8.118-5.519h33.236c3.264,0,8.439-0.928,11.5-2.062l11.141-4.128
					c9.026-8.12,18.783-16.719,19.648-16.746C388.787,400.712,298.195,392.718,298.195,392.718z"/>
				<path style="fill:#3E3B44;" d="M391.177,400.632c-0.008-0.003-0.035,0.012-0.047,0.012
					C391.175,400.642,391.199,400.639,391.177,400.632z"/>
			</g>
			<g>
				<path style="fill:#A8B4C6;" d="M383.711,371.225c-0.413,0-0.832-0.108-1.213-0.335c-1.126-0.671-1.495-2.128-0.824-3.255
					l19.135-32.12c0.671-1.126,2.128-1.496,3.255-0.824c1.126,0.671,1.495,2.128,0.825,3.255l-19.135,32.12
					C385.309,370.811,384.521,371.225,383.711,371.225z"/>
			</g>
			<g>
				<path style="fill:#CFD9E8;" d="M352.992,422.789c-0.413,0-0.832-0.108-1.213-0.335c-1.126-0.671-1.495-2.128-0.824-3.255
					l30.719-51.564c0.671-1.126,2.128-1.495,3.255-0.824c1.126,0.671,1.495,2.128,0.824,3.255l-30.719,51.564
					C354.59,422.375,353.802,422.789,352.992,422.789z"/>
			</g>
			<polygon style="opacity:0.3;fill:#3E3B44;" points="152.194,425.559 162.581,476.701 134.093,476.701 140.324,424.767 			"/>
			<path style="fill:#8EB238;" d="M140.416,476.599c-3.264,0-5.521-2.639-5.016-5.863l6.471-41.293
				c0.505-3.225-1.752-5.863-5.016-5.863h-7.645c3.264,0,5.521,2.638,5.016,5.863l-6.471,41.293
				c-0.505,3.225,1.752,5.863,5.016,5.863H140.416z"/>
		</g>
	</g>
	<g>
		<path style="fill:#E67F92;" d="M187.526,411.108c-1.563,0-3.135-0.523-4.434-1.597L163.481,393.3
			c-4.715-3.897-10.054-11.09-12.42-16.731l-19.355-46.142c-1.488-3.548,0.181-7.63,3.729-9.118c3.547-1.488,7.63,0.181,9.118,3.729
			l19.355,46.142c1.478,3.523,5.505,8.948,8.449,11.382l19.611,16.211c2.965,2.451,3.382,6.842,0.931,9.807
			C191.522,410.247,189.531,411.108,187.526,411.108z"/>
	</g>
	<path style="opacity:0.7;fill:#3B3744;" d="M188.909,472.046c-2.308-14.366-2.663-16.574-2.663-25.993
		c0-0.519-0.035-1.03-0.091-1.534c0.047-0.441,0.087-0.884,0.087-1.335c0-6.611,0-10.053,0-12.475h-48.267h-16.879
		c0,2.422,0,5.863,0,12.475c0,0.377,0.04,0.747,0.073,1.118c-0.073,0.574-0.124,1.156-0.124,1.75v98.151h11.368h16.07v-85.039
		h10.853c0.445,4.538,1.214,9.343,2.482,17.234c1.882,11.716,4.977,30.981,9.99,67.804h27.689
		C194.146,504.645,190.873,484.27,188.909,472.046z"/>
	<g>
		<g>
			<g>
				<path style="fill:#FFA41F;" d="M121.183,614.797c-7.577,0-13.719-6.142-13.719-13.719V446.053
					c0-7.577,6.142-13.719,13.719-13.719c7.577,0,13.719,6.142,13.719,13.719v155.025
					C134.902,608.655,128.759,614.797,121.183,614.797z"/>
			</g>
			<g>
				<path style="fill:#FFA41F;" d="M177.585,613.504c-6.8,0-13.59-11.976-13.59-11.976l-21.705-135.612
					c0,0,2.936-5.053,2.936-19.863c0-7.577,6.142-13.719,13.719-13.719c7.577,0,13.719,6.142,13.719,13.719
					c0,12.952,0.849,19.194,5.562,53.831c2.758,20.27,6.925,50.902,12.984,98.154c0.964,7.516-4.348,14.389-11.863,15.352
					C178.755,613.467,178.165,613.504,177.585,613.504z"/>
			</g>
			<path style="fill:#438FB5;" d="M172.66,416.068v22.61c0,11.268-9.219,20.487-20.487,20.487h-24.172
				c-11.268,0-20.461-9.219-20.428-20.487l0.065-22.61H172.66z"/>
			<path style="fill:#FFA41F;" d="M172.66,422.505V446.6c0,11.268-9.219,20.487-20.487,20.487h-24.172
				c-11.268,0-20.487-8.974-20.487-19.941c0-10.968,0-19.941,0-19.941L172.66,422.505z"/>
			<path style="fill:#AD5050;" d="M195.086,616.23c2.881,0,5.238-2.357,5.238-5.237v-6.316c0-2.881-2.357-5.237-5.238-5.237h-28.432
				c-2.881,0-5.238,2.357-5.238,5.237v6.316c0,2.881,2.357,5.237,5.238,5.237H195.086z"/>
			<g>
				<path style="fill:#FFA8A6;" d="M156.066,290.678c-2.706,8.599,2.114,17.848,10.713,20.555l8.492,2.673
					c8.598,2.706,17.848-2.114,20.554-10.713l6.836-21.718c2.706-8.598-2.114-17.848-10.713-20.554l-8.492-2.673
					c-8.598-2.707-17.848,2.114-20.554,10.713L156.066,290.678z"/>
				<path style="opacity:0.2;fill:#E67F92;" d="M198.864,265.242c-0.067,2.071-0.388,4.163-1.038,6.229l-9.755,30.993
					c-2.853,7.635-9.173,1.164-17.097,5.354c7.364,0.488,17.956,12.091,24.853-4.625l6.836-21.718
					C204.51,275.603,202.844,269.43,198.864,265.242z"/>
				<g>
					<path style="fill:#FFA8A6;" d="M155.997,324.487c-5.396-1.699-8.394-7.45-6.695-12.846l5.002-15.892
						c1.699-5.396,7.45-8.394,12.846-6.695c5.396,1.699,8.394,7.45,6.695,12.846l-5.002,15.892
						C167.145,323.188,161.393,326.186,155.997,324.487z"/>
				</g>
				<path style="fill:#934D4A;" d="M188.727,248.069l6.541,2.063c8.599,2.706,14.283,9.457,11.576,18.055
					c0,0,0.554-1.76-1.096,3.482c-1.65,5.243-7.019,3.838-7.019,3.838c-3.984-0.854-3.844,0.207-6.323,8.08
					c-0.429,1.364-3.876,3.816-4.795,6.516c-0.831,2.44-3.73-3.095-4.204-1.526c-0.973,3.225-3.105,11.916-8.717,11.967
					c-13.488,0.123-21.236,0.785-19.922-7.493c2.201-13.867,7.211-30.667,7.211-30.667
					C165.929,247.553,180.129,245.362,188.727,248.069z"/>
				<path style="fill:#FFA8A6;" d="M190.777,288.048c1.226-3.894,6.113-5.825,2.219-7.051c-3.894-1.226-8.044,0.937-9.27,4.831
					c-1.226,3.894,0.937,8.045,4.831,9.271C192.451,296.325,189.551,291.942,190.777,288.048z"/>
			</g>
		</g>
		<path style="fill:#9B6642;" d="M176.339,307.263h-22.671h-8.584c-16.508,0-19.933,11.378-21.555,17.094
			c-8.382,29.526-13.399,59.467-15.844,90.427c-0.434,7.985,5.484,6.054,12.748,6.054c12.766,0,26.173,0,38.939,0
			c7.263,0,13.182,1.967,13.407-5.107c1.727-32.106,5.315-58.565,16.766-88.658C192.117,320.927,193.948,307.263,176.339,307.263z"
			/>
		<g>
			<path style="fill:#FFA8A6;" d="M258.431,405.913c-0.957,0-1.929-0.198-2.858-0.617l-40.897-18.429
				c-6.118-2.757-12.673-9.51-15.247-15.708l-19.188-46.211c-1.476-3.553,0.209-7.629,3.762-9.104
				c3.552-1.474,7.629,0.209,9.104,3.762l19.188,46.211c1.211,2.916,5.225,7.052,8.104,8.349l40.897,18.429
				c3.507,1.58,5.07,5.705,3.489,9.212C263.624,404.385,261.086,405.913,258.431,405.913z"/>
			<path style="fill:#E67F92;" d="M210.16,384.181c2.089-3.431,5.514-9.058,7.283-11.978c-2.187-1.837-4.322-4.395-5.148-6.387
				l-10.565,9.559C203.923,378.668,206.947,381.828,210.16,384.181z"/>
		</g>
		<g>
			<path style="fill:#9B6642;" d="M215.165,366.828l-23.131-50.841c-3.301-7.257-5.071-7.384-13.661-7.384
				c-5.085,0-6.589,14.263-4.148,19.71l21.033,46.885c0,0,1.176,2.462,3.154,1.575c1.979-0.887,13.843-6.024,16.07-7.204
				C216.71,368.389,215.165,366.828,215.165,366.828z"/>
		</g>
		<path style="fill:#A0704E;" d="M216.516,365.576c0.932,1.618,0.372,3.707-1.245,4.642l-14.796,8.552
			c-1.617,0.934-3.702,0.375-4.634-1.243l-3.219-5.589c-0.932-1.618-0.372-3.707,1.245-4.642l14.796-8.552
			c1.617-0.935,3.702-0.375,4.634,1.243L216.516,365.576z"/>
		<path style="fill:#FFA41F;" d="M155.852,344.432c-2.547,17.26-16.011,70.152-2.689,70.304c13.322,0.152,18.898,2.559,20.632-14.19
			c0,0-1.503,24.307-1.134,30.993c0.369,6.687-65.058,4.298-65.058,4.298s0-2.401,0-15.811c0-6.41,0.296-8.456,0.296-8.456
			s2.449,1.655,5.107,1.655c2.67,0,1.374-3.021,3.946-22.109c4.232-31.405,8.594-46.685,8.594-46.685H155.852z"/>
		<path style="fill:#FFA41F;" d="M140.5,344.432c8.288,0,8.851-0.566,11.399-8.3c2.548-7.734,9.198-28.836,22.662-28.836h6.926
			c0,0-21.083-3.291-29.013,55.435h-10.477L140.5,344.432z"/>
		<path style="fill:#FFA41F;" d="M125.739,357.421c8.288,0-1.783-5.003-0.193-12.989c2.421-12.167,9.394-37.136,22.858-37.136h4.663
			c0,0-18.734-3.291-25.028,55.435l-2.582,11.978L125.739,357.421z"/>
		<circle style="fill:#FFA8A6;" cx="258.975" cy="399.384" r="10.767"/>
		<path style="fill:#E58025;" d="M129.042,467.088l0.201,133.99c0,6.402-5.524,11.765-11.455,13.278
			c1.088,0.278,2.221,0.441,3.396,0.441c7.577,0,13.719-6.142,13.719-13.719l5.186-133.99H129.042z"/>
		<path style="fill:#AD5050;" d="M134.631,616.23c2.881,0,5.238-2.357,5.238-5.237v-6.316c0-2.881-2.357-5.237-5.238-5.237h-24.632
			c-2.881,0-5.238,2.357-5.238,5.237v6.316c0,2.881,2.357,5.237,5.238,5.237H134.631z"/>
		<path style="fill:#FFA41F;" d="M117.787,416.117c-5.253,1.884-10.124-0.995-10.124,5.255s0,10.593,0,15.112
			c0,4.518,4.784,10.855,15.674,10.855c10.891,0,6.506,0,11.716,0c8.12,0,23.018-2.753,23.018-17.148
			C158.072,418.252,117.787,416.117,117.787,416.117z"/>
	</g>
	<path style="fill:#FFA41F;" d="M124.418,438.846c2.075,5.565,9.328-4.595,10.395-9.011c1.066-4.416,3.745,5.171,7.129,4.569
		c3.384-0.602,5.389-6.766,3.695-7.811c-1.694-1.046-13.39,0.613-13.39,0.613s-5,2.578-7.122,5.129
		C123.003,434.884,124.418,438.846,124.418,438.846z"/>
</g>
</svg>
