<?xml version="1.0" encoding="utf-8"?>
<!-- Generator: Adobe Illustrator 27.5.0, SVG Export Plug-In . SVG Version: 6.00 Build 0)  -->
<svg version="1.1" xmlns="http://www.w3.org/2000/svg" xmlns:xlink="http://www.w3.org/1999/xlink" x="0px" y="0px"
	 viewBox="0 0 500 500" style="enable-background:new 0 0 500 500;" xml:space="preserve">
<g id="BACKGROUND">
	<rect style="fill:#A0DEF5;" width="500" height="500"/>
</g>
<g id="OBJECTS">
	<g>
		<g>
			<path style="fill:#FF2C3E;" d="M357.052,101.9c-12.414,33.29-15.571,71.28-6.954,109.596
				c6.41,28.499,18.645,54.028,34.968,75.439c1.962,2.573,5.016,3.883,7.99,3.35c2.029-0.363,4.059-0.767,6.088-1.223
				c2.03-0.457,4.037-0.961,6.026-1.501c2.916-0.792,5.115-3.283,5.787-6.449c5.585-26.337,5.712-54.647-0.698-83.146
				C401.643,159.65,382.524,126.67,357.052,101.9z"/>
			<g>
				<path style="fill:#FFFFFF;" d="M396.587,157.771l-51.341,11.547c0.069,10.394,0.969,20.938,2.759,31.538l59.591-13.402
					C404.676,177.107,400.975,167.194,396.587,157.771z"/>
				<path style="fill:#FFFFFF;" d="M389.159,143.425l-43.344,9.748c-0.2,2.597-0.351,5.205-0.446,7.826l47.543-10.693
					C391.705,147.979,390.452,145.686,389.159,143.425z"/>
				<path style="fill:#FFFFFF;" d="M409.508,194.758l-60.104,13.517c0.223,1.074,0.452,2.147,0.694,3.221
					c0.311,1.385,0.648,2.756,0.987,4.126l60.05-13.505c-0.281-1.383-0.563-2.767-0.875-4.152
					C410.019,196.892,409.766,195.823,409.508,194.758z"/>
			</g>
			<path style="opacity:0.2;" d="M403.598,283.713c2.589-0.712,4.518-3.041,5.076-6.029c4.637-24.858,4.381-51.654-1.705-78.715
				c-8.182-36.382-25.658-67.85-48.693-91.629l39.969,177.715C400.048,284.65,401.831,284.199,403.598,283.713z"/>
			<path style="fill:#FFFFFF;" d="M396.761,278.461L396.761,278.461c-2.044,0.46-4.092-0.837-4.552-2.88l-3.25-14.452
				c-0.46-2.044,0.836-4.092,2.88-4.552l0,0c2.044-0.46,4.092,0.837,4.552,2.88l3.25,14.452
				C400.101,275.953,398.805,278.001,396.761,278.461z"/>
		</g>
		<path style="fill:none;stroke:#B88065;stroke-width:2;stroke-linecap:round;stroke-linejoin:round;stroke-miterlimit:10;" d="
			M368.441,129.141c0,0,27.399,71.393,70.979,217.934"/>
		<g>
			<path style="fill:#2E3D47;" d="M311.048,66.186h-24.511c-3.22,0-5.854,2.634-5.854,5.854v15.997c0,3.22,2.634,5.854,5.854,5.854
				h24.511c3.22,0,5.854-2.634,5.854-5.854V72.04C316.903,68.82,314.268,66.186,311.048,66.186z M311.768,85.681
				c0,2.294-1.877,4.171-4.171,4.171h-17.608c-2.294,0-4.171-1.877-4.171-4.171V74.396c0-2.294,1.877-4.171,4.171-4.171h17.608
				c2.294,0,4.171,1.877,4.171,4.171V85.681z"/>
			<g>
				<path style="fill:#2E3D47;" d="M241.297,80.038h114.001c4.189,0,7.586,3.396,7.586,7.586v79.252
					c0,4.189-3.396,7.586-7.586,7.586H241.297c-4.189,0-7.586-3.396-7.586-7.586V87.624
					C233.711,83.435,237.107,80.038,241.297,80.038z"/>
				<path style="fill:#394C59;" d="M242.84,84.388h110.915c2.441,0,4.42,1.979,4.42,4.42v76.885c0,2.441-1.979,4.42-4.42,4.42
					H242.84c-2.441,0-4.42-1.979-4.42-4.42V88.808C238.42,86.367,240.399,84.388,242.84,84.388z"/>
			</g>
			<path style="fill:#B88065;" d="M306.583,72.053h-15.581c-2.749,0-4.999-2.25-4.999-4.999l0,0c0-2.75,2.25-4.999,4.999-4.999
				h15.581c2.75,0,4.999,2.25,4.999,4.999l0,0C311.582,69.803,309.333,72.053,306.583,72.053z"/>
		</g>
		<g>
			<g>
				<path style="fill:#A5BA55;" d="M301.28,109.925c-19.119,14.976-22.477,42.615-7.501,61.734
					c14.976,19.119,42.615,22.477,61.734,7.501c19.119-14.976,22.477-42.615,7.501-61.734
					C348.038,98.308,320.399,94.949,301.28,109.925z M343.751,164.145c-10.826,8.48-26.477,6.578-34.957-4.248
					c-8.48-10.826-6.578-26.477,4.248-34.957c10.826-8.48,26.477-6.578,34.957,4.248
					C356.479,140.014,354.577,155.665,343.751,164.145z"/>
				<g>
					<path style="fill:#7D8C40;" d="M308.794,159.897c-2.056-2.625-3.496-5.534-4.353-8.556l-17.368,8.242
						c1.546,4.246,3.768,8.326,6.705,12.076c2.937,3.75,6.367,6.884,10.118,9.402l12.161-14.889
						C313.33,164.617,310.85,162.522,308.794,159.897z"/>
					<path style="fill:#7D8C40;" d="M347.999,129.188c2.056,2.625,3.496,5.534,4.353,8.556l17.368-8.242
						c-1.546-4.246-3.768-8.326-6.705-12.076c-2.937-3.75-6.367-6.884-10.118-9.402l-12.161,14.888
						C343.463,124.468,345.943,126.563,347.999,129.188z"/>
					<path style="fill:#7D8C40;" d="M291.878,120.043l14.889,12.161c1.555-2.728,3.65-5.208,6.275-7.264
						c2.625-2.056,5.535-3.496,8.556-4.353l-8.242-17.368c-4.246,1.546-8.326,3.768-12.076,6.705
						C297.53,112.862,294.396,116.291,291.878,120.043z"/>
					<path style="fill:#7D8C40;" d="M364.915,169.042l-14.888-12.161c-1.555,2.728-3.65,5.208-6.275,7.264
						c-2.625,2.056-5.534,3.496-8.556,4.353l8.242,17.368c4.246-1.546,8.326-3.768,12.076-6.705
						C359.263,176.223,362.397,172.794,364.915,169.042z"/>
				</g>
			</g>
			<path style="opacity:0.1;" d="M301.28,109.925c-19.119,14.976-22.477,42.615-7.501,61.734
				c14.976,19.119,42.615,22.477,61.734,7.501c19.119-14.976,22.477-42.615,7.501-61.734
				C348.038,98.308,320.399,94.949,301.28,109.925z M351.174,173.621c-16.059,12.579-39.276,9.758-51.855-6.301
				c-12.579-16.059-9.758-39.276,6.301-51.855s39.276-9.758,51.855,6.301C370.054,137.825,367.233,161.041,351.174,173.621z"/>
		</g>
		<g>
			<g>
				<path style="fill:#FFFFFF;" d="M207.344,156.764c-24.286-0.118-44.068,19.474-44.186,43.76
					c-0.118,24.286,19.475,44.069,43.76,44.187c24.286,0.118,44.068-19.474,44.186-43.76
					C251.222,176.665,231.63,156.881,207.344,156.764z M207.011,225.637c-13.752-0.067-24.846-11.269-24.779-25.021
					c0.066-13.752,11.268-24.846,25.02-24.779c13.752,0.067,24.846,11.269,24.779,25.021
					C231.965,214.61,220.763,225.704,207.011,225.637z"/>
				<g>
					<path style="fill:#FF2C3E;" d="M182.232,200.616c0.016-3.334,0.692-6.51,1.895-9.41l-18.734-4.313
						c-1.422,4.289-2.211,8.867-2.234,13.63c-0.023,4.763,0.722,9.349,2.102,13.651l18.775-4.131
						C182.86,207.132,182.215,203.951,182.232,200.616z"/>
					<path style="fill:#FF2C3E;" d="M232.031,200.858c-0.016,3.334-0.692,6.51-1.895,9.41l18.734,4.313
						c1.422-4.289,2.211-8.867,2.234-13.63c0.023-4.763-0.722-9.349-2.102-13.651l-18.775,4.131
						C231.402,194.342,232.047,197.523,232.031,200.858z"/>
					<path style="fill:#FF2C3E;" d="M193.693,158.865l4.131,18.775c2.912-1.175,6.094-1.82,9.428-1.803
						c3.334,0.016,6.51,0.692,9.41,1.895l4.312-18.734c-4.289-1.422-8.867-2.211-13.63-2.234S197.995,157.485,193.693,158.865z"/>
					<path style="fill:#FF2C3E;" d="M220.57,242.609l-4.131-18.775c-2.912,1.175-6.094,1.82-9.428,1.803
						c-3.334-0.016-6.51-0.692-9.41-1.895l-4.312,18.734c4.289,1.422,8.867,2.211,13.63,2.234
						C211.682,244.734,216.267,243.989,220.57,242.609z"/>
				</g>
			</g>
			<path style="opacity:0.1;" d="M207.344,156.764c-24.286-0.118-44.068,19.474-44.186,43.76
				c-0.118,24.286,19.475,44.069,43.76,44.187c24.286,0.118,44.068-19.474,44.186-43.76
				C251.222,176.665,231.63,156.881,207.344,156.764z M206.953,237.674c-20.4-0.099-36.857-16.716-36.758-37.116
				c0.099-20.4,16.716-36.857,37.115-36.758c20.399,0.099,36.856,16.716,36.758,37.116
				C243.969,221.316,227.352,237.773,206.953,237.674z"/>
		</g>
		<g>
			<path style="fill:#E09E5E;" d="M284.244,111.492c8.968,0,13.645,3.247,13.645,3.247l13.644,25.278h-27.289h-27.289l13.645-25.278
				C270.6,114.738,275.276,111.492,284.244,111.492z"/>
			<path style="fill:#4D616E;" d="M265.215,124.714l-5.848,10.833c11.174,0,24.877,0,24.877,0h24.877l-5.848-10.833
				c-5.406,0.174-11.696,0.277-19.029,0.277C276.911,124.991,270.621,124.888,265.215,124.714z"/>
			<path style="fill:#D49559;" d="M284.244,134.695c-48.385,0-51.639-4.461-51.639-4.461c0,16.382,13.913,15.017,13.913,15.017
				h37.726h37.726c0,0,13.913,1.365,13.913-15.017C335.883,130.234,332.629,134.695,284.244,134.695z"/>
		</g>
		<g>
			<g>
				<path style="fill:#B88065;" d="M376.911,174.462l-162.878,0c-3.196,0-5.787,2.591-5.787,5.787v24.615
					c0,3.196,2.591,5.787,5.787,5.787h162.878c3.196,0,5.787-2.591,5.787-5.787V180.25
					C382.698,177.053,380.107,174.462,376.911,174.462z"/>
				<rect x="208.245" y="190.614" style="fill:#9C6951;" width="174.453" height="3.886"/>
				<path style="opacity:0.1;" d="M381.803,177.167l-3.176,23.928c-0.406,3.059-3.181,5.517-6.201,5.517H218.517
					c-3.02,0-5.795-2.458-6.201-5.517l-3.176-23.928c-0.564,0.893-0.895,1.948-0.895,3.082v24.615c0,3.196,2.591,5.787,5.787,5.787
					h162.878c3.196,0,5.787-2.591,5.787-5.787V180.25C382.698,179.115,382.367,178.061,381.803,177.167z"/>
			</g>
			<path style="fill:#2F3F4A;" d="M281.278,184.523c0,1.924-1.56,3.483-3.483,3.483s-3.484-1.56-3.484-3.483
				c0-1.924,1.56-3.484,3.484-3.484S281.278,182.599,281.278,184.523z"/>
			<path style="fill:#2F3F4A;" d="M316.657,184.523c0,1.924-1.56,3.483-3.483,3.483c-1.924,0-3.484-1.56-3.484-3.483
				c0-1.924,1.56-3.484,3.484-3.484C315.097,181.039,316.657,182.599,316.657,184.523z"/>
			<path style="fill:#4D616E;" d="M311.317,185.272v10.34c0,1.631-1.334,2.965-2.965,2.965h-25.761
				c-1.631,0-2.965-1.334-2.965-2.965v-10.34c0-0.996-0.808-1.804-1.804-1.804l0,0c-0.996,0-1.804,0.808-1.804,1.804v10.885
				c0,3.223,2.637,5.859,5.859,5.859h27.189c3.222,0,5.859-2.637,5.859-5.859v-10.885c0-0.996-0.808-1.804-1.804-1.804l0,0
				C312.125,183.467,311.317,184.275,311.317,185.272z"/>
		</g>
		<g>
			<g>
				<path style="fill:#FFB700;" d="M349.994,145.11H217.886c-2.592,0-4.694,2.102-4.694,4.694v19.965
					c0,2.592,2.102,4.694,4.694,4.694l132.108,0c2.592,0,4.694-2.102,4.694-4.694v-19.965
					C354.688,147.211,352.586,145.11,349.994,145.11z"/>
				<rect x="213.192" y="158.21" style="fill:#E0A100;" width="141.495" height="3.152"/>
				<path style="opacity:0.1;" d="M353.786,147.058l-3.084,19.284c-0.393,2.458-2.67,4.43-5.091,4.43H222.269
					c-2.42,0-4.698-1.971-5.091-4.43l-3.084-19.284c-0.561,0.773-0.902,1.717-0.902,2.746v19.965c0,2.592,2.102,4.694,4.694,4.694
					l132.108,0c2.592,0,4.694-2.102,4.694-4.694v-19.965C354.688,148.775,354.347,147.831,353.786,147.058z"/>
			</g>
			<path style="fill:#2F3F4A;" d="M272.428,153.27c0,1.56-1.265,2.825-2.826,2.825c-1.56,0-2.825-1.265-2.825-2.825
				c0-1.561,1.265-2.826,2.825-2.826C271.163,150.444,272.428,151.709,272.428,153.27z"/>
			<path style="fill:#2F3F4A;" d="M301.123,153.27c0,1.56-1.265,2.825-2.826,2.825c-1.56,0-2.825-1.265-2.825-2.825
				c0-1.561,1.265-2.826,2.825-2.826C299.858,150.444,301.123,151.709,301.123,153.27z"/>
			<path style="fill:#4D616E;" d="M296.792,153.877v8.386c0,1.323-1.082,2.405-2.405,2.405h-20.894
				c-1.323,0-2.405-1.082-2.405-2.405v-8.386c0-0.808-0.655-1.463-1.463-1.463l0,0c-0.808,0-1.463,0.655-1.463,1.463v8.828
				c0,2.614,2.139,4.752,4.752,4.752h22.052c2.614,0,4.752-2.138,4.752-4.752v-8.828c0-0.808-0.655-1.463-1.463-1.463l0,0
				C297.447,152.414,296.792,153.069,296.792,153.877z"/>
		</g>
		<path style="fill:none;stroke:#B88065;stroke-width:2;stroke-linecap:round;stroke-linejoin:round;stroke-miterlimit:10;" d="
			M210.208,128.141c0,0-14.096,62.473-28.52,165.706"/>
		<g>
			<g>
				
					<ellipse transform="matrix(0.9096 -0.4154 0.4154 0.9096 -36.6539 112.6584)" style="fill:#F0F6FC;" cx="240.621" cy="140.579" rx="34.109" ry="34.109"/>
				<path style="fill:#A5BA55;" d="M210.208,125.141c5.745,0.349,11.761,0.736,17.993,1.163c0,0-0.944-6.983-7.197-13.622
					C216.464,115.881,212.743,120.157,210.208,125.141z"/>
				<path style="fill:#A5BA55;" d="M240.621,174.688c1.456,0,2.887-0.102,4.296-0.279c-18.143-24.641-16.716-48.105-16.716-48.105
					s-11.261,7.602-20.57,22.957C211.471,163.893,224.783,174.688,240.621,174.688z"/>
				<path style="fill:#A5BA55;" d="M251.32,108.191c-19.264,5.627-23.119,18.114-23.119,18.114s24.549,2.718,46.199,18.975
					c0.212-1.537,0.33-3.105,0.33-4.701C274.73,125.479,264.915,112.68,251.32,108.191z"/>
				<path style="fill:#FFFFFF;" d="M234.925,120.151c2.507,2.738,1.528,7.712-2.186,11.111c-3.714,3.399-8.756,3.934-11.263,1.197
					c-2.507-2.738-1.528-7.712,2.186-11.111C227.376,117.949,232.418,117.413,234.925,120.151z"/>
			</g>
			<path style="opacity:0.1;" d="M259.14,111.941c4.751,5.41,7.637,12.498,7.637,20.263c0,16.973-13.759,30.733-30.733,30.733
				c-14.019,0-25.837-9.39-29.529-22.22c0.075,18.774,15.314,33.971,34.106,33.971c18.838,0,34.109-15.271,34.109-34.109
				C274.73,128.57,268.519,118.019,259.14,111.941z"/>
		</g>
		<g>
			<path style="opacity:0.1;" d="M437.473,441.945H67.548c-6.324,0-11.498-5.174-11.498-11.498v0
				c0-6.324,5.174-11.498,11.498-11.498h369.925c6.324,0,11.498,5.174,11.498,11.498v0
				C448.971,436.771,443.797,441.945,437.473,441.945z"/>
			<path style="opacity:0.1;" d="M188.633,434.499h-68.477c-2.428,0-4.414-1.986-4.414-4.414l0,0c0-2.428,1.987-4.414,4.414-4.414
				h68.477c2.428,0,4.414,1.987,4.414,4.414l0,0C193.048,432.513,191.061,434.499,188.633,434.499z"/>
			<path style="opacity:0.1;" d="M408.567,434.499H340.09c-2.428,0-4.414-1.986-4.414-4.414l0,0c0-2.428,1.987-4.414,4.414-4.414
				h68.477c2.428,0,4.414,1.987,4.414,4.414l0,0C412.982,432.513,410.995,434.499,408.567,434.499z"/>
			<g>
				<g>
					<g>
						<path style="fill:#394C59;" d="M149.273,408.364H89.992c-2.744,0-5.178-1.763-6.034-4.37l-4.547-13.857
							c-1.348-4.106,1.711-8.33,6.033-8.33h68.376c4.322,0,7.381,4.224,6.034,8.33l-4.548,13.857
							C154.45,406.602,152.017,408.364,149.273,408.364z"/>
						<path style="fill:#394C59;" d="M425.68,408.364h-59.281c-2.744,0-5.178-1.763-6.034-4.37l-4.548-13.857
							c-1.348-4.106,1.712-8.33,6.034-8.33h68.376c4.322,0,7.381,4.224,6.034,8.33l-4.548,13.857
							C430.857,406.602,428.424,408.364,425.68,408.364z"/>
						<path style="fill:#4D616E;" d="M73.689,397.582l363.558,0c3.715,0,6.727-3.012,6.727-6.727v-16.381H66.963v16.381
							C66.963,394.57,69.974,397.582,73.689,397.582z"/>
						<path style="fill:#FFB700;" d="M258.038,382.297l-201.989,0v-41.12c0-4.604,2.456-8.858,6.457-11.136
							c16.905-9.626,60.962-21.757,119.181-40.194l30.935-75.727c0.731-2.071,2.789-3.469,5.106-3.469h141.559
							c2.364,0,4.452,1.453,5.145,3.582l31.607,86.95c0,0,24.331,9.831,42.821,25.007c6.386,5.241,10.11,13.057,10.11,21.318v34.787
							H258.038z"/>
						<path style="fill:#394C59;" d="M80.685,390.937H52.979c-2.722,0-4.948-2.227-4.948-4.949v-15.345
							c0-2.722,2.227-4.949,4.948-4.949h27.706c2.722,0,4.949,2.227,4.949,4.949v15.345
							C85.634,388.71,83.407,390.937,80.685,390.937z"/>
						<path style="fill:#394C59;" d="M451.915,390.937h-17.133c-2.23,0-4.054-1.824-4.054-4.054v-17.133
							c0-2.23,1.825-4.054,4.054-4.054h17.133c2.23,0,4.054,1.824,4.054,4.054v17.133
							C455.969,389.112,454.145,390.937,451.915,390.937z"/>
						<path style="fill:#FFFFFF;" d="M83.009,343.058c0-4.581-3.748-8.329-8.329-8.329H57.783c-1.117,1.926-1.733,4.143-1.733,6.448
							v10.21h18.63C79.261,351.387,83.009,347.639,83.009,343.058z"/>
						<path style="fill:#FF2C3E;" d="M429.869,343.058c0,4.581,3.748,8.329,8.329,8.329h10.773v-3.878
							c0-4.509-1.117-8.883-3.164-12.78h-7.609C433.617,334.729,429.869,338.477,429.869,343.058z"/>
						<path style="fill:#FF8C00;" d="M99.5,361.53h-9.702c-2.29,0-4.164-1.874-4.164-4.164l0,0c0-2.291,1.874-4.165,4.164-4.165
							H99.5c2.291,0,4.165,1.874,4.165,4.165l0,0C103.665,359.656,101.791,361.53,99.5,361.53z"/>
						<path style="fill:#FF8C00;" d="M422.669,361.53h-9.702c-2.29,0-4.165-1.874-4.165-4.164l0,0c0-2.291,1.874-4.165,4.165-4.165
							h9.702c2.29,0,4.165,1.874,4.165,4.165l0,0C426.834,359.656,424.96,361.53,422.669,361.53z"/>
					</g>
					<g>
						
							<ellipse transform="matrix(0.7071 -0.7071 0.7071 0.7071 -235.0047 225.2467)" style="fill:#2F3F4A;" cx="154.395" cy="396.299" rx="34.762" ry="34.762"/>
						
							<ellipse transform="matrix(0.8477 -0.5304 0.5304 0.8477 -186.6903 142.2286)" style="fill:#B3BEC9;" cx="154.394" cy="396.299" rx="27.058" ry="27.058"/>
						
							<ellipse transform="matrix(0.6078 -0.7941 0.7941 0.6078 -254.1445 278.0345)" style="fill:#D5E2EF;" cx="154.395" cy="396.299" rx="22.87" ry="22.87"/>
						<circle style="fill:#E8F3FF;" cx="154.395" cy="396.299" r="13.4"/>
					</g>
					<g>
						<path style="fill:#2F3F4A;" d="M410.158,396.299c0-19.199-15.564-34.762-34.762-34.762c-19.199,0-34.762,15.564-34.762,34.762
							s15.564,34.762,34.762,34.762C394.594,431.061,410.158,415.498,410.158,396.299z"/>
						<circle style="fill:#B3BEC9;" cx="375.396" cy="396.299" r="27.503"/>
						<circle style="fill:#D5E2EF;" cx="375.396" cy="396.299" r="22.87"/>
						
							<ellipse transform="matrix(0.9736 -0.2284 0.2284 0.9736 -80.6047 96.2349)" style="fill:#E8F3FF;" cx="375.396" cy="396.299" rx="13.4" ry="13.4"/>
					</g>
				</g>
				<g>
					<path style="fill:#E0A100;" d="M189.166,292.916l-15.457,51.12c27.939,5.678,31.85,30.668,31.85,30.668h33.93h42.622
						l1.829-150.948c0-2.799-2.409-5.068-5.381-5.068h-54.643c-2.318,0-4.375,1.398-5.106,3.469L189.166,292.916z"/>
					<path style="fill:#4D616E;" d="M252.618,302.499h18.345c1.657,0,3.012-1.355,3.012-3.012l0,0c0-1.657-1.355-3.012-3.012-3.012
						h-18.345c-1.657,0-3.012,1.355-3.012,3.012l0,0C249.605,301.143,250.961,302.499,252.618,302.499z"/>
					<path style="fill:#A0DEF5;" d="M271.666,285.682c1.695,0,3.09-1.334,3.166-3.027l2.355-52.578c0-2.799-2.409-5.068-5.381-5.068
						h-43.388c-2.356,0-4.439,1.444-5.139,3.563l-22.126,52.714c-0.299,0.714-0.327,1.512-0.079,2.245l0,0
						c0.436,1.285,1.643,2.15,3,2.15H271.666z"/>
					<path style="opacity:0.4;fill:#FFFFFF;" d="M254.888,228.762h-23.649c-2.065,0-3.89,1.265-4.503,3.122l-18.105,43.135
						L254.888,228.762z"/>
					<path style="opacity:0.4;fill:#FFFFFF;" d="M273.773,237.722l0.202-4.518c0-1.735-1.066-3.221-2.605-3.952
						c-17.559,17.559-35.118,35.118-52.677,52.677h10.873L273.773,237.722z"/>
					<path style="opacity:0.4;fill:#FFFFFF;" d="M272.51,265.9l0.466-10.412c-8.814,8.814-17.627,17.627-26.44,26.44h9.945
						C261.824,276.586,267.167,271.243,272.51,265.9z"/>
				</g>
				<g>
					<path style="fill:#E0A100;" d="M375.396,340.105c7.714,0,15.064,1.557,21.756,4.37c0.626-0.153,1.252-0.306,1.904-0.439
						l-15.457-51.12l-25.458-70.759c-0.731-2.072-2.789-3.469-5.106-3.469h-54.643c-2.972,0-5.381,2.269-5.381,5.068l-2.356,150.948
						l32.855,0C331.973,354.388,352.013,340.105,375.396,340.105z"/>
					<path style="fill:#4D616E;" d="M302.775,302.499h18.345c1.657,0,3.012-1.355,3.012-3.012l0,0c0-1.657-1.355-3.012-3.012-3.012
						h-18.345c-1.657,0-3.012,1.355-3.012,3.012l0,0C299.763,301.143,301.119,302.499,302.775,302.499z"/>
					<path style="fill:#A0DEF5;" d="M303.438,285.682c-1.804,0-3.27-1.455-3.284-3.259l-0.392-52.346
						c0-2.799,2.409-5.068,5.381-5.068h43.388c2.356,0,4.439,1.444,5.139,3.563l18.043,52.763c0.235,0.687,0.236,1.431,0.002,2.118
						l0,0c-0.452,1.332-1.703,2.228-3.109,2.228H303.438z"/>
					<path style="opacity:0.4;fill:#FFFFFF;" d="M337.025,229.23l-27.598,0c-2.559,0-4.633,1.953-4.633,4.363L305,261.254
						L337.025,229.23z"/>
					<path style="opacity:0.4;fill:#FFFFFF;" d="M307.957,281.462h5.143l40.92-40.92l-2.819-8.244
						c-0.022-0.067-0.057-0.127-0.082-0.192l-45.993,45.993l0.004,0.557C305.142,280.209,306.404,281.462,307.957,281.462z"/>
					<polygon style="opacity:0.4;fill:#FFFFFF;" points="362.062,264.056 358.345,253.188 330.071,281.462 344.657,281.462 					"/>
				</g>
			</g>
		</g>
	</g>
</g>
</svg>
